<svg xmlns="http://www.w3.org/2000/svg" xmlns:xlink="http://www.w3.org/1999/xlink" viewBox="0 0 439.06 77.02"><defs><style>.cls-1,.cls-2,.cls-9{fill:none;}.cls-2{stroke:#5593d7;stroke-width:3px;}.cls-2,.cls-9{stroke-miterlimit:10;}.cls-3{fill:#5a90cb;}.cls-4{fill:#fff;}.cls-5{clip-path:url(#clip-path);}.cls-6{fill:#fdfeff;}.cls-7{fill:#5593d7;}.cls-8{fill:#cfd1d3;}.cls-9{stroke:#999;stroke-linecap:round;stroke-width:2.66px;}</style><clipPath id="clip-path"><circle class="cls-1" cx="219.48" cy="41.19" r="34.54"/></clipPath></defs><title>Asset 15</title><g id="Layer_2" data-name="Layer 2"><g id="design"><line class="cls-2" x1="84.04" y1="40.74" x2="352.2" y2="40.74"/><polyline class="cls-2" points="347.05 33.86 353.93 40.74 347.05 47.62"/><circle class="cls-3" cx="403.36" cy="41.19" r="35.7"/><path class="cls-4" d="M424,44.66a3.47,3.47,0,1,0-2-6.33l-4.88-2.82c0-.09,0-.18,0-.28s0-.19,0-.28L422,32.14a3.47,3.47,0,1,0,0-5.72l-4.88-2.82c0-.09,0-.18,0-.28a3.48,3.48,0,1,0-1.5,2.86L420.54,29c0,.09,0,.18,0,.28s0,.19,0,.28l-4.88,2.82a3.47,3.47,0,0,0-3.95,0l-4.88-2.82c0-.09,0-.18,0-.28a3.47,3.47,0,0,0-2-3.14V20.5a3.47,3.47,0,1,0-3,0v5.64a3.47,3.47,0,1,0,3.46,6L410.22,35c0,.09,0,.18,0,.28s0,.19,0,.28l-4.88,2.82a3.47,3.47,0,0,0-3.95,0l-4.88-2.82c0-.09,0-.18,0-.28a3.47,3.47,0,0,0-2-3.14V26.46a3.47,3.47,0,1,0-3,0V32.1a3.51,3.51,0,0,0-.48.28l-4.88-2.82c0-.09,0-.18,0-.28a3.47,3.47,0,1,0-5,3.14v5.64a3.47,3.47,0,1,0,3,0V32.41a3.41,3.41,0,0,0,.48-.28L389.59,35c0,.09,0,.18,0,.28a3.47,3.47,0,0,0,2,3.14V44a3.47,3.47,0,0,0-2,3.14c0,.09,0,.19,0,.28l-4.88,2.82a3.47,3.47,0,1,0,1.5,2.86c0-.09,0-.19,0-.28L391.07,50a3.47,3.47,0,1,0,3.46-6V38.37a3.4,3.4,0,0,0,.48-.28l4.88,2.82c0,.09,0,.18,0,.28a3.47,3.47,0,0,0,2,3.14V50a3.47,3.47,0,0,0-2,3.14c0,.09,0,.19,0,.28L395,56.2a3.47,3.47,0,1,0,1.5,2.86c0-.09,0-.19,0-.28L401.39,56a3.51,3.51,0,0,0,.48.28v5.64a3.47,3.47,0,1,0,5,3.14c0-.09,0-.19,0-.28l4.88-2.82a3.47,3.47,0,1,0-1.5-2.86c0,.1,0,.19,0,.28l-4.88,2.82a3.5,3.5,0,0,0-.48-.28V56.24a3.47,3.47,0,0,0,2-3.14c0-.09,0-.19,0-.28L411.71,50a3.47,3.47,0,0,0,3.95,0l4.88,2.82c0,.09,0,.18,0,.28a3.48,3.48,0,1,0,1.5-2.86l-4.88-2.82c0-.09,0-.18,0-.28a3.47,3.47,0,1,0-6.95,0c0,.09,0,.19,0,.28l-4.88,2.82a3.61,3.61,0,0,0-.48-.28V44.32a3.47,3.47,0,0,0,2-3.14c0-.09,0-.19,0-.28l4.88-2.82a3.47,3.47,0,0,0,3.95,0l4.88,2.82c0,.09,0,.18,0,.28A3.47,3.47,0,0,0,424,44.66"/><circle class="cls-3" cx="35.7" cy="41.19" r="35.7"/><path class="cls-4" d="M35.7,45.89c11.15,0,20.82,5.29,25.64,13a31.17,31.17,0,1,0-51.29,0C14.88,51.17,24.55,45.89,35.7,45.89Z"/><path class="cls-3" d="M35.7,72.36A31.13,31.13,0,0,0,61.35,58.91c-4.83-7.74-14.5-13-25.64-13s-20.82,5.29-25.64,13A31.13,31.13,0,0,0,35.7,72.36Z"/><ellipse class="cls-3" cx="35.7" cy="32.98" rx="13.49" ry="16.11"/><g class="cls-5"><circle class="cls-4" cx="219.48" cy="41.19" r="34.87"/><circle class="cls-6" cx="219.48" cy="41.19" r="34.87"/><g id="_Group_" data-name="&lt;Group&gt;"><path id="_Compound_Path_" data-name="&lt;Compound Path&gt;" class="cls-7" d="M235.57,51.08,221,22.47a1.73,1.73,0,0,0-1.54-.95h0a1.73,1.73,0,0,0-1.54,1L203.4,51.08a1.73,1.73,0,1,0,3.1,1.56l4.12-8.15h17.7l4.16,8.15a1.73,1.73,0,0,0,3.09-1.58Zm-23.2-10,7.05-13.95L226.54,41Z"/></g><g id="_Group_2" data-name="&lt;Group&gt;"><path id="_Path_" data-name="&lt;Path&gt;" class="cls-8" d="M201.29,44.88h0l-18.2,0a1.63,1.63,0,0,1,0-3.26h0l17.2,0,7.33-14.06a1.63,1.63,0,1,1,2.89,1.51L202.74,44A1.63,1.63,0,0,1,201.29,44.88Z"/></g><g id="_Group_3" data-name="&lt;Group&gt;"><path id="_Path_2" data-name="&lt;Path&gt;" class="cls-8" d="M204.95,60.44A8.57,8.57,0,0,1,197.3,48a1.63,1.63,0,1,1,2.91,1.47,5.3,5.3,0,1,0,9.47,4.79l3.13-6.19h4.3a1.63,1.63,0,1,1,0,3.26h-2.29l-2.22,4.39A8.53,8.53,0,0,1,204.95,60.44Z"/></g><g id="_Group_4" data-name="&lt;Group&gt;"><path id="_Path_3" data-name="&lt;Path&gt;" class="cls-9" d="M219.41,16.32"/></g><g id="_Group_5" data-name="&lt;Group&gt;"><path id="_Path_4" data-name="&lt;Path&gt;" class="cls-8" d="M211.29,25.57a1.63,1.63,0,0,1-1.46-2.37l1.92-3.81c1.05-2.09,2.2-3.51,4.66-4.16a1.63,1.63,0,1,1,.84,3.16c-1.22.32-1.75.83-2.58,2.48l-1.92,3.81A1.63,1.63,0,0,1,211.29,25.57Z"/></g><g id="_Group_6" data-name="&lt;Group&gt;"><path id="_Path_5" data-name="&lt;Path&gt;" class="cls-8" d="M237.83,44.88a1.63,1.63,0,0,1-1.45-.88l-7.79-14.94a1.63,1.63,0,1,1,2.89-1.51l7.33,14.06,17.2,0h0a1.63,1.63,0,0,1,0,3.26l-18.2,0Z"/></g><g id="_Group_7" data-name="&lt;Group&gt;"><path id="_Path_6" data-name="&lt;Path&gt;" class="cls-8" d="M234.17,60.44a8.53,8.53,0,0,1-7.65-4.7l-2.22-4.39H222a1.63,1.63,0,1,1,0-3.26h4.3l3.13,6.19a5.3,5.3,0,0,0,9.47-4.79A1.63,1.63,0,1,1,241.82,48a8.57,8.57,0,0,1-7.65,12.44Z"/></g><g id="_Group_8" data-name="&lt;Group&gt;"><path id="_Path_7" data-name="&lt;Path&gt;" class="cls-8" d="M227.83,25.57a1.63,1.63,0,0,1-1.46-.9l-1.93-3.81c-.85-1.68-1.61-2.42-2.8-2.73a1.63,1.63,0,1,1,.84-3.16,7.58,7.58,0,0,1,4.88,4.42l1.93,3.81a1.63,1.63,0,0,1-1.46,2.37Z"/></g><g id="_Group_9" data-name="&lt;Group&gt;"><path id="_Path_8" data-name="&lt;Path&gt;" class="cls-8" d="M234,68.19a16.26,16.26,0,0,1-14.54-8.9h0A16.32,16.32,0,0,1,189,48.39a1.63,1.63,0,0,1,3.19.69,13.06,13.06,0,0,0,24.41,8.67l.52-1a1.63,1.63,0,0,1,1.46-.9h1.8a1.63,1.63,0,0,1,1.45.89l.56,1.09a13.06,13.06,0,0,0,24.39-8.72,1.63,1.63,0,0,1,3.19-.7,16.33,16.33,0,0,1-16,19.8Z"/></g><g id="_Group_10" data-name="&lt;Group&gt;"><path id="_Path_9" data-name="&lt;Path&gt;" class="cls-8" d="M243.21,39.2a1.63,1.63,0,0,1-1.45-.89L231,17.32a13,13,0,0,0-11.63-7.12h0a13,13,0,0,0-11.62,7.17L197.17,38.3a1.63,1.63,0,1,1-2.91-1.47L204.84,15.9a16.25,16.25,0,0,1,14.53-9h0a16.26,16.26,0,0,1,14.54,8.9l10.72,21a1.63,1.63,0,0,1-1.45,2.38Z"/></g><g id="_Group_11" data-name="&lt;Group&gt;"><path id="_Compound_Path_2" data-name="&lt;Compound Path&gt;" class="cls-8" d="M234,75.13h0A23.27,23.27,0,0,1,219.48,70a23.26,23.26,0,0,1-35.3-28.65l14.46-28.61A23.26,23.26,0,0,1,219.36,0h0a23.26,23.26,0,0,1,20.72,12.68l14.61,28.6A23.26,23.26,0,0,1,234,75.13Zm0-3.26h0a20,20,0,0,0,17.81-29.09l-14.61-28.6a20,20,0,0,0-17.81-10.9h0a20,20,0,0,0-17.8,11L187.1,42.84a20,20,0,0,0,31.29,23.83,1.63,1.63,0,0,1,2.19,0A20,20,0,0,0,234,71.86Z"/></g><g id="_Group_12" data-name="&lt;Group&gt;"><circle id="_Path_10" data-name="&lt;Path&gt;" class="cls-8" cx="219.45" cy="36.95" r="2.08"/></g></g><path class="cls-7" d="M219.48,5.36a35.83,35.83,0,1,0,35.83,35.83A35.83,35.83,0,0,0,219.48,5.36Zm0,69.2a33.37,33.37,0,1,1,33.37-33.37A33.37,33.37,0,0,1,219.48,74.56Z"/></g></g></svg>