<svg xmlns="http://www.w3.org/2000/svg" viewBox="0 0 172.98 14.94"><defs><style>.cls-1{fill:#4d4d4d;}.cls-2{fill:#5593d7;}</style></defs><title>Asset 1</title><g id="Layer_2" data-name="Layer 2"><g id="design"><path class="cls-1" d="M59.75,14.75,58,10.34H52.47l-1.71,4.41H49.13L54.61.83H56l5.45,13.92ZM57.52,8.89,55.91,4.6q-.31-.82-.65-2a17.86,17.86,0,0,1-.6,2L53,8.89Z"/><path class="cls-1" d="M64.57,4.36V11.1a2.71,2.71,0,0,0,.58,1.9,2.36,2.36,0,0,0,1.81.63,3,3,0,0,0,2.38-.89,4.5,4.5,0,0,0,.75-2.91V4.36h1.57V14.75h-1.3l-.23-1.39h-.09a3.14,3.14,0,0,1-1.34,1.18,4.51,4.51,0,0,1-2,.41,4,4,0,0,1-2.84-.9A3.84,3.84,0,0,1,63,11.16V4.36Z"/><path class="cls-1" d="M78.36,13.64a5.15,5.15,0,0,0,.81-.06,5.24,5.24,0,0,0,.62-.13v1.2a2.88,2.88,0,0,1-.75.2,5.65,5.65,0,0,1-.9.08q-3,0-3-3.18V5.58H73.63V4.83l1.49-.65L75.79,2h.91V4.36h3V5.58h-3V11.7a2.11,2.11,0,0,0,.45,1.44A1.55,1.55,0,0,0,78.36,13.64Z"/><path class="cls-1" d="M89,14.75V8a2.71,2.71,0,0,0-.58-1.9,2.36,2.36,0,0,0-1.81-.63,3,3,0,0,0-2.39.89,4.51,4.51,0,0,0-.75,2.92v5.43H81.86V0h1.57V4.47a9.7,9.7,0,0,1-.08,1.34h.09a3.22,3.22,0,0,1,1.32-1.18,4.31,4.31,0,0,1,2-.43,4,4,0,0,1,2.86.91,3.81,3.81,0,0,1,1,2.88v6.78Z"/><path class="cls-1" d="M98.17,14.94a4.77,4.77,0,0,1-3.64-1.4,5.43,5.43,0,0,1-1.33-3.9,6,6,0,0,1,1.24-4,4.11,4.11,0,0,1,3.32-1.48,3.92,3.92,0,0,1,3.09,1.29A4.92,4.92,0,0,1,102,8.85v1H94.83a4.12,4.12,0,0,0,.92,2.78,3.2,3.2,0,0,0,2.47.95,8.37,8.37,0,0,0,3.32-.7v1.4a8.34,8.34,0,0,1-1.58.52A8.86,8.86,0,0,1,98.17,14.94Zm-.43-9.45a2.57,2.57,0,0,0-2,.82,3.76,3.76,0,0,0-.88,2.26h5.43a3.46,3.46,0,0,0-.66-2.28A2.34,2.34,0,0,0,97.75,5.49Z"/><path class="cls-1" d="M111.79,14.75V8a2.71,2.71,0,0,0-.58-1.9,2.36,2.36,0,0,0-1.81-.63,3,3,0,0,0-2.39.88,4.45,4.45,0,0,0-.76,2.91v5.45h-1.57V4.36H106l.26,1.42h.08a3.21,3.21,0,0,1,1.36-1.19,4.41,4.41,0,0,1,1.94-.42,4,4,0,0,1,2.83.91,3.85,3.85,0,0,1,.95,2.9v6.78Z"/><path class="cls-1" d="M120,13.64a5.15,5.15,0,0,0,.81-.06,5.24,5.24,0,0,0,.62-.13v1.2a2.88,2.88,0,0,1-.75.2,5.65,5.65,0,0,1-.9.08q-3,0-3-3.18V5.58h-1.49V4.83l1.49-.65L117.37,2h.91V4.36h3V5.58h-3V11.7a2.11,2.11,0,0,0,.45,1.44A1.55,1.55,0,0,0,120,13.64Z"/><path class="cls-1" d="M123.32,1.54a1,1,0,0,1,.27-.79,1,1,0,0,1,1.32,0,1,1,0,0,1,.27.79,1,1,0,0,1-.27.79.92.92,0,0,1-.65.26.91.91,0,0,1-.66-.26A1.06,1.06,0,0,1,123.32,1.54ZM125,14.75h-1.57V4.36H125Z"/><path class="cls-1" d="M132.52,14.94A4.44,4.44,0,0,1,129,13.55a5.71,5.71,0,0,1-1.24-3.93,5.89,5.89,0,0,1,1.26-4,4.52,4.52,0,0,1,3.58-1.42,7.11,7.11,0,0,1,1.5.16,5,5,0,0,1,1.18.38L134.81,6a7.47,7.47,0,0,0-1.14-.35,5.08,5.08,0,0,0-1.09-.14q-3.17,0-3.17,4a4.81,4.81,0,0,0,.77,2.94,2.69,2.69,0,0,0,2.29,1,7,7,0,0,0,2.66-.56V14.4A5.68,5.68,0,0,1,132.52,14.94Z"/><path class="cls-1" d="M144,14.75l-.31-1.48h-.08a4.37,4.37,0,0,1-1.55,1.32,4.73,4.73,0,0,1-1.93.35,3.47,3.47,0,0,1-2.42-.8,2.91,2.91,0,0,1-.88-2.27q0-3.15,5-3.3l1.76-.06V7.88a2.63,2.63,0,0,0-.53-1.81,2.16,2.16,0,0,0-1.68-.58,6.85,6.85,0,0,0-2.94.8L138,5.08a7.39,7.39,0,0,1,1.68-.65,7.28,7.28,0,0,1,1.83-.24,4,4,0,0,1,2.75.83,3.44,3.44,0,0,1,.9,2.65v7.09Zm-3.56-1.11a3.2,3.2,0,0,0,2.31-.81,3,3,0,0,0,.84-2.26V9.64L142,9.71a5.73,5.73,0,0,0-2.71.58,1.76,1.76,0,0,0-.83,1.61,1.62,1.62,0,0,0,.52,1.3A2.14,2.14,0,0,0,140.44,13.64Z"/><path class="cls-1" d="M151.77,13.64a5.15,5.15,0,0,0,.81-.06,5.24,5.24,0,0,0,.62-.13v1.2a2.88,2.88,0,0,1-.75.2,5.65,5.65,0,0,1-.9.08q-3,0-3-3.18V5.58H147V4.83l1.49-.65L149.19,2h.91V4.36h3V5.58h-3V11.7a2.11,2.11,0,0,0,.45,1.44A1.55,1.55,0,0,0,151.77,13.64Z"/><path class="cls-1" d="M164.24,9.55a5.73,5.73,0,0,1-1.28,4,4.51,4.51,0,0,1-3.54,1.43,4.68,4.68,0,0,1-2.48-.65,4.31,4.31,0,0,1-1.67-1.88,6.54,6.54,0,0,1-.59-2.86,5.73,5.73,0,0,1,1.27-4,4.5,4.5,0,0,1,3.53-1.42A4.4,4.4,0,0,1,163,5.62,5.71,5.71,0,0,1,164.24,9.55Zm-7.92,0a4.93,4.93,0,0,0,.8,3,3.16,3.16,0,0,0,4.69,0,4.91,4.91,0,0,0,.8-3,4.83,4.83,0,0,0-.8-3,2.82,2.82,0,0,0-2.37-1,2.77,2.77,0,0,0-2.33,1A4.88,4.88,0,0,0,156.32,9.55Z"/><path class="cls-1" d="M171.74,4.17a6.21,6.21,0,0,1,1.24.11l-.22,1.46a5.37,5.37,0,0,0-1.14-.14,2.77,2.77,0,0,0-2.16,1,3.73,3.73,0,0,0-.9,2.55v5.58H167V4.36h1.3l.18,1.92h.08a4.58,4.58,0,0,1,1.39-1.56A3.14,3.14,0,0,1,171.74,4.17Z"/><path class="cls-2" d="M9.7,10.48A4.09,4.09,0,0,1,9,12.77a4.28,4.28,0,0,1-1.88,1.55,7,7,0,0,1-2.89.55A11.64,11.64,0,0,1,2,14.68,8.57,8.57,0,0,1,0,14V10.67a11.13,11.13,0,0,0,2.23.86,8.29,8.29,0,0,0,2.12.31,2.06,2.06,0,0,0,1.22-.29A.89.89,0,0,0,6,10.8a.82.82,0,0,0-.16-.5,1.8,1.8,0,0,0-.5-.43Q5,9.66,3.46,9a8.83,8.83,0,0,1-2-1.19,3.66,3.66,0,0,1-1-1.33A4.4,4.4,0,0,1,.09,4.7a3.55,3.55,0,0,1,1.39-3A6.14,6.14,0,0,1,5.31.64a10.73,10.73,0,0,1,4.38,1L8.55,4.53A8.3,8.3,0,0,0,5.2,3.64a1.75,1.75,0,0,0-1.06.26.77.77,0,0,0-.33.63.91.91,0,0,0,.42.73A16,16,0,0,0,6.51,6.43,6.32,6.32,0,0,1,9,8.16,3.75,3.75,0,0,1,9.7,10.48Z"/><path class="cls-2" d="M20.44,14.69l-.68-2.59h-4.5l-.7,2.59H10.45L15,.79h5l4.57,13.9ZM19,9l-.6-2.27q-.21-.76-.51-2t-.39-1.72q-.08.48-.34,1.59T16,9Z"/><path class="cls-2" d="M29.9,14.69H26.22V.84H34.4v3H29.9V6.49H34v3H29.9Z"/><path class="cls-2" d="M44.91,14.69H36.69V.84h8.22v3H40.43V6h4.15V9H40.43v2.61h4.48Z"/></g></g></svg>