<svg xmlns="http://www.w3.org/2000/svg" viewBox="0 0 41 41"><defs><style>.cls-1{fill:#ea4e18;}.cls-2{fill:none;stroke:#ea4e18;stroke-miterlimit:10;}</style></defs><title>Asset 18</title><g id="Layer_2" data-name="Layer 2"><g id="design"><path class="cls-1" d="M17.91,29a2.47,2.47,0,0,1,.66-1.88,2.69,2.69,0,0,1,1.93-.64,2.62,2.62,0,0,1,1.9.65A2.47,2.47,0,0,1,23.09,29a2.47,2.47,0,0,1-.68,1.84,2.57,2.57,0,0,1-1.89.67,2.65,2.65,0,0,1-1.92-.66A2.46,2.46,0,0,1,17.91,29Zm4.42-5.05H18.73L18,9.5h5.11Z"/><circle class="cls-2" cx="20.5" cy="20.5" r="20"/></g></g></svg>