<svg xmlns="http://www.w3.org/2000/svg" xmlns:xlink="http://www.w3.org/1999/xlink" viewBox="0 0 62.37 63.04"><defs><style>.cls-1,.cls-6{fill:none;}.cls-2{clip-path:url(#clip-path);}.cls-3{fill:#fff;}.cls-4{fill:#fdfeff;}.cls-5{fill:#e3e4e5;}.cls-6{stroke:#999;stroke-linecap:round;stroke-miterlimit:10;stroke-width:2.66px;}.cls-7{fill:#f9a832;}</style><clipPath id="clip-path"><circle class="cls-1" cx="31.12" cy="33.71" r="28.27"/></clipPath></defs><title>reconnect</title><g id="Layer_2" data-name="Layer 2"><g id="Layer_1-2" data-name="Layer 1"><g class="cls-2"><circle class="cls-3" cx="31.12" cy="33.71" r="28.54"/><circle class="cls-4" cx="31.12" cy="33.71" r="28.54"/><g id="_Group_" data-name="&lt;Group&gt;"><g id="_Group_2" data-name="&lt;Group&gt;"><path class="cls-5" d="M44.29,41.81l-12-23.41a1.42,1.42,0,0,0-1.26-.77h0a1.42,1.42,0,0,0-1.26.78L18,41.81a1.42,1.42,0,1,0,2.53,1.28l3.37-6.67H38.35l3.41,6.67a1.42,1.42,0,0,0,2.53-1.29Zm-19-8.22,5.77-11.41L36.9,33.59Z"/></g></g><g id="_Group_3" data-name="&lt;Group&gt;"><g id="_Group_4" data-name="&lt;Group&gt;"><path class="cls-5" d="M16.23,36.73h0l-14.89,0a1.34,1.34,0,0,1,0-2.67h0l14.08,0,6-11.51a1.34,1.34,0,1,1,2.37,1.23L17.41,36A1.34,1.34,0,0,1,16.23,36.73Z"/></g></g><g id="_Group_5" data-name="&lt;Group&gt;"><g id="_Group_6" data-name="&lt;Group&gt;"><path class="cls-5" d="M19.22,49.47A7,7,0,0,1,13,39.29a1.34,1.34,0,0,1,2.38,1.21,4.34,4.34,0,1,0,7.75,3.92l2.56-5.06h3.52a1.34,1.34,0,1,1,0,2.67H27.3l-1.82,3.6A7,7,0,0,1,19.22,49.47Z"/></g></g><g id="_Group_7" data-name="&lt;Group&gt;"><g id="_Group_8" data-name="&lt;Group&gt;"><path class="cls-6" d="M31.06,13.36"/></g></g><g id="_Group_9" data-name="&lt;Group&gt;"><g id="_Group_10" data-name="&lt;Group&gt;"><path class="cls-5" d="M24.42,20.93A1.34,1.34,0,0,1,23.22,19l1.58-3.12a5.61,5.61,0,0,1,3.81-3.4,1.34,1.34,0,1,1,.68,2.58c-1,.26-1.43.68-2.11,2L25.61,20.2A1.34,1.34,0,0,1,24.42,20.93Z"/></g></g><g id="_Group_11" data-name="&lt;Group&gt;"><g id="_Group_12" data-name="&lt;Group&gt;"><path class="cls-5" d="M46.14,36.73A1.34,1.34,0,0,1,45,36L38.58,23.78a1.34,1.34,0,1,1,2.37-1.23l6,11.51L61,34h0a1.34,1.34,0,0,1,0,2.67l-14.89,0Z"/></g></g><g id="_Group_13" data-name="&lt;Group&gt;"><g id="_Group_14" data-name="&lt;Group&gt;"><path class="cls-5" d="M43.14,49.47a7,7,0,0,1-6.26-3.85L35.06,42H33.19a1.34,1.34,0,1,1,0-2.67h3.52l2.56,5.06A4.34,4.34,0,0,0,47,40.49a1.34,1.34,0,0,1,2.38-1.21,7,7,0,0,1-6.26,10.18Z"/></g></g><g id="_Group_15" data-name="&lt;Group&gt;"><g id="_Group_16" data-name="&lt;Group&gt;"><path class="cls-5" d="M38,20.93a1.34,1.34,0,0,1-1.19-.73l-1.58-3.12c-.69-1.37-1.32-2-2.3-2.24a1.34,1.34,0,1,1,.68-2.58,6.2,6.2,0,0,1,4,3.62L39.14,19A1.34,1.34,0,0,1,38,20.93Z"/></g></g><g id="_Group_17" data-name="&lt;Group&gt;"><g id="_Group_18" data-name="&lt;Group&gt;"><path class="cls-5" d="M43,55.81a13.31,13.31,0,0,1-11.9-7.28h0a13.36,13.36,0,0,1-25-8.92,1.34,1.34,0,1,1,2.61.57,10.69,10.69,0,0,0,20,7.1l.43-.85a1.34,1.34,0,0,1,1.19-.73h1.47a1.34,1.34,0,0,1,1.19.73l.46.89a10.69,10.69,0,0,0,20-7.14,1.34,1.34,0,0,1,2.61-.57A13.37,13.37,0,0,1,43,55.81Z"/></g></g><g id="_Group_19" data-name="&lt;Group&gt;"><g id="_Group_20" data-name="&lt;Group&gt;"><path class="cls-5" d="M50.54,32.08a1.34,1.34,0,0,1-1.19-.73L40.58,14.18a10.65,10.65,0,0,0-9.52-5.83h0a10.64,10.64,0,0,0-9.51,5.87L12.86,31.35a1.34,1.34,0,1,1-2.38-1.21L19.14,13A13.3,13.3,0,0,1,31,5.68h0A13.31,13.31,0,0,1,43,13l8.78,17.18a1.34,1.34,0,0,1-1.19,1.94Z"/></g></g><g id="_Group_21" data-name="&lt;Group&gt;"><g id="_Group_22" data-name="&lt;Group&gt;"><path class="cls-5" d="M43,61.49h0a19,19,0,0,1-11.9-4.18A19,19,0,0,1,2.23,33.86L14.07,10.45A19,19,0,0,1,31,0h0A19,19,0,0,1,48,10.38L60,33.79a19,19,0,0,1-17,27.7Zm0-2.67h0A16.37,16.37,0,0,0,57.6,35l-12-23.41A16.37,16.37,0,0,0,31.06,2.67h0a16.37,16.37,0,0,0-14.57,9L4.62,35.07a16.37,16.37,0,0,0,25.61,19.5,1.34,1.34,0,0,1,1.8,0,16.38,16.38,0,0,0,11,4.25Z"/></g></g><g id="_Group_23" data-name="&lt;Group&gt;"><g id="_Group_24" data-name="&lt;Group&gt;"><circle class="cls-5" cx="31.1" cy="30.25" r="1.7"/></g></g></g><path class="cls-7" d="M31.12,4.39A29.32,29.32,0,1,0,60.45,33.71,29.32,29.32,0,0,0,31.12,4.39Zm0,56.64A27.31,27.31,0,1,1,58.44,33.71,27.31,27.31,0,0,1,31.12,61Z"/><path class="cls-7" d="M31.12,51.95A18.25,18.25,0,0,1,14.43,41.05L19,39a13.24,13.24,0,0,0,23.69,1.1l4.37,2.43A18.26,18.26,0,0,1,31.12,51.95Z"/><polygon class="cls-7" points="53.1 44.98 35.58 39.95 46.85 33.71 53.1 44.98"/><path class="cls-7" d="M43.24,28.39a13.24,13.24,0,0,0-23.69-1.1l-4.37-2.43a18.24,18.24,0,0,1,32.63,1.52Z"/><polygon class="cls-7" points="9.15 22.44 26.66 27.48 15.39 33.71 9.15 22.44"/></g></g></svg>