<?xml version="1.0" encoding="utf-8"?>
<!-- Generator: Adobe Illustrator 21.1.0, SVG Export Plug-In . SVG Version: 6.00 Build 0)  -->
<svg version="1.1" id="Layer_1" xmlns="http://www.w3.org/2000/svg" xmlns:xlink="http://www.w3.org/1999/xlink" x="0px" y="0px"
	 viewBox="0 0 20.9 21.1" style="enable-background:new 0 0 20.9 21.1;" xml:space="preserve">
<style type="text/css">
	.st0{clip-path:url(#SVGID_2_);}
	.st1{fill:#FFFFFF;}
	.st2{fill:#FDFEFF;}
	.st3{fill:#818181;}
	.st4{fill:none;stroke:#999999;stroke-width:2.66;stroke-linecap:round;stroke-miterlimit:10;}
</style>
<title>Asset 8</title>
<g id="design">
	<g>
		<defs>
			<circle id="SVGID_1_" cx="10.4" cy="11.3" r="9.5"/>
		</defs>
		<clipPath id="SVGID_2_">
			<use xlink:href="#SVGID_1_"  style="overflow:visible;"/>
		</clipPath>
		<g class="st0">
			<circle class="st1" cx="10.4" cy="11.3" r="9.5"/>
			<circle class="st2" cx="10.4" cy="11.3" r="9.5"/>
			<g id="_Group_">
				<path id="_Compound_Path_" class="st3" d="M14.8,14l-4-7.8c-0.1-0.2-0.2-0.3-0.4-0.3l0,0C10.2,5.9,10,6,10,6.2L6,14
					c-0.1,0.2,0,0.5,0.2,0.6c0.2,0.1,0.5,0,0.6-0.2L8,12.2h4.8l1.2,2.2c0.1,0.2,0.4,0.3,0.6,0.2S15,14.2,14.8,14L14.8,14L14.8,14z
					 M8.5,11.2l1.9-3.8l1.9,3.8H8.5z"/>
			</g>
			<g id="_Group_2">
				<path id="_Path_" class="st3" d="M5.4,12.3h-5c-0.2,0-0.4-0.3-0.4-0.5c0-0.2,0.2-0.3,0.4-0.4h4.7l2-3.8c0.1-0.2,0.4-0.3,0.7-0.2
					C8,7.5,8.1,7.8,8,8l0,0l-2.2,4C5.8,12.2,5.6,12.3,5.4,12.3z"/>
			</g>
			<g id="_Group_3">
				<path id="_Path_2" class="st3" d="M6.4,16.5c-1.3,0-2.3-1.1-2.3-2.4c0-0.4,0.1-0.7,0.2-1C4.5,12.9,4.8,12.9,5,13
					c0.2,0.1,0.3,0.3,0.2,0.5c-0.4,0.7-0.1,1.6,0.6,1.9c0.7,0.4,1.6,0.1,1.9-0.6l0.9-1.7h1.2c0.2,0,0.4,0.3,0.4,0.5
					c0,0.2-0.2,0.3-0.4,0.4H9.1l-0.6,1.2C8.1,16,7.3,16.5,6.4,16.5z"/>
			</g>
			<g id="_Group_4">
				<path id="_Path_3" class="st4" d="M10.4,4.5"/>
			</g>
			<g id="_Group_5">
				<path id="_Path_4" class="st3" d="M8.2,7C7.9,7,7.7,6.8,7.7,6.5c0-0.1,0-0.1,0-0.2l0.5-1c0.2-0.6,0.7-1,1.3-1.2
					c0.2-0.1,0.5-0.1,0.6,0.1c0.1,0.2,0.1,0.5-0.1,0.6C10,5,9.9,5,9.8,5C9.5,5.1,9.3,5.2,9.1,5.7l-0.5,1C8.5,6.9,8.3,7,8.2,7z"/>
			</g>
			<g id="_Group_6">
				<path id="_Path_5" class="st3" d="M15.4,12.3c-0.2,0-0.4-0.1-0.4-0.3l-2.1-4c-0.1-0.2-0.1-0.5,0.1-0.6s0.5-0.1,0.6,0.1
					c0,0,0,0.1,0.1,0.1l2,3.9h4.7c0.2,0,0.4,0.3,0.4,0.5c0,0.2-0.2,0.3-0.4,0.4L15.4,12.3L15.4,12.3z"/>
			</g>
			<g id="_Group_7">
				<path id="_Path_6" class="st3" d="M14.4,16.5c-0.9,0-1.7-0.5-2.1-1.3L11.7,14h-0.6c-0.2,0-0.5-0.1-0.5-0.4s0.1-0.5,0.4-0.5
					c0,0,0.1,0,0.1,0h1.2l0.9,1.7c0.4,0.7,1.2,1,1.9,0.6c0.7-0.4,1-1.2,0.6-1.9c-0.1-0.2,0-0.5,0.3-0.6c0.2-0.1,0.4,0,0.5,0.2
					c0.6,1.2,0.1,2.6-1.1,3.2C15.2,16.4,14.8,16.5,14.4,16.5L14.4,16.5z"/>
			</g>
			<g id="_Group_8">
				<path id="_Path_7" class="st3" d="M12.7,7c-0.2,0-0.3-0.1-0.4-0.2l-0.5-1C11.5,5.2,11.3,5,11,5c-0.2,0-0.4-0.3-0.4-0.5
					c0-0.2,0.3-0.4,0.5-0.4c0,0,0.1,0,0.1,0c0.6,0.2,1.1,0.6,1.3,1.2l0.5,1c0.1,0.2,0,0.5-0.2,0.6C12.8,7,12.8,7,12.7,7L12.7,7z"/>
			</g>
			<g id="_Group_9">
				<path id="_Path_8" class="st3" d="M14.4,18.7c-1.7,0-3.2-0.9-4-2.4l0,0c-1.1,2.2-3.8,3.1-6,1.9c-1.8-0.9-2.7-2.9-2.3-4.9
					C2.1,13,2.4,12.9,2.6,13c0.2,0.1,0.3,0.3,0.3,0.5c-0.4,1.9,0.8,3.8,2.7,4.3c1.6,0.4,3.2-0.4,4-1.9l0.1-0.3
					c0.1-0.2,0.2-0.2,0.4-0.2h0.5c0.2,0,0.3,0.1,0.4,0.2l0.1,0.3c0.9,1.8,3,2.5,4.8,1.6c1.5-0.7,2.3-2.4,1.9-4
					c-0.1-0.2,0-0.5,0.3-0.6s0.5,0,0.6,0.3c0,0,0,0.1,0,0.1c0.5,2.4-1,4.8-3.4,5.3C15,18.6,14.7,18.6,14.4,18.7L14.4,18.7z"/>
			</g>
			<g id="_Group_10">
				<path id="_Path_9" class="st3" d="M16.9,10.7c-0.2,0-0.3-0.1-0.4-0.2l-2.9-5.8c-0.6-1.2-1.8-2-3.2-2l0,0c-1.4,0-2.6,0.8-3.2,2
					l-2.9,5.7c-0.1,0.2-0.3,0.4-0.6,0.3c-0.2-0.1-0.4-0.3-0.3-0.6c0,0,0-0.1,0-0.1l2.9-5.7c0.8-1.5,2.3-2.5,4-2.5l0,0
					c1.7,0,3.2,0.9,4,2.4l2.9,5.7c0.1,0.2,0,0.5-0.2,0.6C17.1,10.7,17,10.7,16.9,10.7L16.9,10.7z"/>
			</g>
			<g id="_Group_11">
				<path id="_Compound_Path_2" class="st3" d="M14.4,20.6L14.4,20.6c-1.5,0-2.9-0.5-4-1.4c-2.8,2.2-6.8,1.7-8.9-1.1
					c-1.5-1.9-1.8-4.5-0.7-6.7l4-7.8C5.8,1.4,8,0,10.4,0l0,0C12.8,0,15,1.3,16,3.5l4,7.8c1.6,3.1,0.3,7-2.8,8.6
					C16.4,20.3,15.4,20.6,14.4,20.6L14.4,20.6z M14.4,19.7L14.4,19.7c3,0,5.5-2.4,5.5-5.4c0-0.9-0.2-1.8-0.6-2.6l-4-7.8
					c-0.9-1.8-2.8-3-4.9-3l0,0c-2.1,0-3.9,1.2-4.9,3l-4,7.8c-1.4,2.7-0.3,6,2.4,7.4c2,1,4.5,0.7,6.2-0.8c0.2-0.2,0.4-0.2,0.6,0
					C11.7,19.1,13,19.6,14.4,19.7L14.4,19.7z"/>
			</g>
			<g id="_Group_12">
				<circle id="_Path_10" class="st3" cx="10.4" cy="10.1" r="0.6"/>
			</g>
		</g>
	</g>
	<path class="st3" d="M10.4,1.5c-5.4,0-9.8,4.4-9.8,9.8s4.4,9.8,9.8,9.8s9.8-4.4,9.8-9.8c0,0,0,0,0,0C20.2,5.9,15.8,1.5,10.4,1.5z
		 M10.4,20.4c-5,0-9.1-4.1-9.1-9.1c0-5,4.1-9.1,9.1-9.1s9.1,4.1,9.1,9.1C19.5,16.3,15.4,20.4,10.4,20.4L10.4,20.4z"/>
</g>
</svg>
