<svg xmlns="http://www.w3.org/2000/svg" xmlns:xlink="http://www.w3.org/1999/xlink" viewBox="0 0 20.85 21.08"><defs><style>.cls-1,.cls-7{fill:none;}.cls-2{clip-path:url(#clip-path);}.cls-3{fill:#fff;}.cls-4{fill:#fdfeff;}.cls-5{fill:#5593d7;}.cls-6{fill:#cfd1d3;}.cls-7{stroke:#999;stroke-linecap:round;stroke-miterlimit:10;stroke-width:2.66px;}</style><clipPath id="clip-path"><circle class="cls-1" cx="10.41" cy="11.27" r="9.45"/></clipPath></defs><title>Asset 8</title><g id="Layer_2" data-name="Layer 2"><g id="design"><g class="cls-2"><circle class="cls-3" cx="10.41" cy="11.27" r="9.54"/><circle class="cls-4" cx="10.41" cy="11.27" r="9.54"/><g id="_Group_" data-name="&lt;Group&gt;"><path id="_Compound_Path_" data-name="&lt;Compound Path&gt;" class="cls-5" d="M14.81,14l-4-7.83a.47.47,0,0,0-.42-.26h0a.47.47,0,0,0-.42.26L6,14a.47.47,0,1,0,.85.43L8,12.18h4.84L14,14.41a.47.47,0,0,0,.85-.43ZM8.46,11.23l1.93-3.82,1.95,3.82Z"/></g><g id="_Group_2" data-name="&lt;Group&gt;"><path id="_Path_" data-name="&lt;Path&gt;" class="cls-6" d="M5.43,12.28h-5a.45.45,0,0,1,0-.89H5.16l2-3.85A.45.45,0,1,1,8,8L5.82,12A.45.45,0,0,1,5.43,12.28Z"/></g><g id="_Group_3" data-name="&lt;Group&gt;"><path id="_Path_2" data-name="&lt;Path&gt;" class="cls-6" d="M6.43,16.54a2.35,2.35,0,0,1-2.09-3.4.45.45,0,0,1,.8.4,1.45,1.45,0,1,0,2.59,1.31l.86-1.69H9.75a.45.45,0,0,1,0,.89H9.13l-.61,1.2A2.33,2.33,0,0,1,6.43,16.54Z"/></g><g id="_Group_4" data-name="&lt;Group&gt;"><path id="_Path_3" data-name="&lt;Path&gt;" class="cls-7" d="M10.38,4.47"/></g><g id="_Group_5" data-name="&lt;Group&gt;"><path id="_Path_4" data-name="&lt;Path&gt;" class="cls-6" d="M8.16,7a.45.45,0,0,1-.4-.65l.53-1A1.88,1.88,0,0,1,9.57,4.17.45.45,0,1,1,9.8,5c-.33.09-.48.23-.71.68l-.53,1A.45.45,0,0,1,8.16,7Z"/></g><g id="_Group_6" data-name="&lt;Group&gt;"><path id="_Path_5" data-name="&lt;Path&gt;" class="cls-6" d="M15.43,12.28A.45.45,0,0,1,15,12L12.9,8a.45.45,0,1,1,.79-.41l2,3.85H20.4a.45.45,0,0,1,0,.89h-5Z"/></g><g id="_Group_7" data-name="&lt;Group&gt;"><path id="_Path_6" data-name="&lt;Path&gt;" class="cls-6" d="M14.42,16.54a2.33,2.33,0,0,1-2.09-1.29L11.72,14H11.1a.45.45,0,1,1,0-.89h1.18l.86,1.69a1.45,1.45,0,0,0,2.59-1.31.45.45,0,0,1,.8-.4,2.35,2.35,0,0,1-2.09,3.4Z"/></g><g id="_Group_8" data-name="&lt;Group&gt;"><path id="_Path_7" data-name="&lt;Path&gt;" class="cls-6" d="M12.69,7a.45.45,0,0,1-.4-.25l-.53-1C11.53,5.25,11.32,5,11,5a.45.45,0,1,1,.23-.86,2.07,2.07,0,0,1,1.34,1.21l.53,1a.45.45,0,0,1-.4.65Z"/></g><g id="_Group_9" data-name="&lt;Group&gt;"><path id="_Path_8" data-name="&lt;Path&gt;" class="cls-6" d="M14.38,18.66a4.45,4.45,0,0,1-4-2.43h0a4.47,4.47,0,0,1-8.34-3,.45.45,0,0,1,.87.19,3.57,3.57,0,0,0,6.68,2.37l.14-.28a.45.45,0,0,1,.4-.25h.49a.45.45,0,0,1,.4.24l.15.3a3.57,3.57,0,0,0,6.68-2.39.45.45,0,1,1,.87-.19,4.47,4.47,0,0,1-4.37,5.42Z"/></g><g id="_Group_10" data-name="&lt;Group&gt;"><path id="_Path_9" data-name="&lt;Path&gt;" class="cls-6" d="M16.9,10.73a.45.45,0,0,1-.4-.24L13.57,4.74a3.56,3.56,0,0,0-3.18-1.95h0a3.56,3.56,0,0,0-3.18,2L4.3,10.48a.45.45,0,1,1-.8-.4L6.4,4.35a4.45,4.45,0,0,1,4-2.45h0a4.45,4.45,0,0,1,4,2.43l2.93,5.74a.45.45,0,0,1-.4.65Z"/></g><g id="_Group_11" data-name="&lt;Group&gt;"><path id="_Compound_Path_2" data-name="&lt;Compound Path&gt;" class="cls-6" d="M14.38,20.56h0a6.37,6.37,0,0,1-4-1.4A6.37,6.37,0,0,1,.75,11.32l4-7.83A6.37,6.37,0,0,1,10.37,0h0a6.37,6.37,0,0,1,5.67,3.47l4,7.83a6.37,6.37,0,0,1-5.67,9.26Zm0-.89h0a5.47,5.47,0,0,0,4.87-8l-4-7.83a5.47,5.47,0,0,0-4.87-3h0a5.47,5.47,0,0,0-4.87,3l-4,7.83a5.47,5.47,0,0,0,8.56,6.52.45.45,0,0,1,.6,0,5.48,5.48,0,0,0,3.68,1.42Z"/></g><g id="_Group_12" data-name="&lt;Group&gt;"><circle id="_Path_10" data-name="&lt;Path&gt;" class="cls-6" cx="10.4" cy="10.11" r="0.57"/></g></g><path class="cls-5" d="M10.41,1.47a9.8,9.8,0,1,0,9.8,9.8A9.8,9.8,0,0,0,10.41,1.47Zm0,18.94a9.13,9.13,0,1,1,9.13-9.13A9.13,9.13,0,0,1,10.41,20.4Z"/></g></g></svg>