<svg xmlns="http://www.w3.org/2000/svg" viewBox="0 0 250 250"><defs><style>.cls-1{fill:#72c7d3;}.cls-2{fill:#fff;}</style></defs><title>Asset 31</title><g id="Layer_2" data-name="Layer 2"><g id="annotations"><circle class="cls-1" cx="125" cy="125" r="125"/><rect class="cls-2" x="39.26" y="79.27" width="171.49" height="120.54" rx="15.21" ry="15.21"/><path class="cls-1" d="M195.53,202H54.47A17.38,17.38,0,0,1,37.11,184.6V94.49A17.38,17.38,0,0,1,54.47,77.12H195.53a17.38,17.38,0,0,1,17.36,17.36V184.6A17.38,17.38,0,0,1,195.53,202ZM54.47,81.42A13.08,13.08,0,0,0,41.41,94.49V184.6a13.08,13.08,0,0,0,13.07,13.07H195.53a13.08,13.08,0,0,0,13.07-13.07V94.49a13.08,13.08,0,0,0-13.07-13.07Z"/><path class="cls-2" d="M125,171.9a5.41,5.41,0,0,1-4.09-1.86L73.24,115.15a5.41,5.41,0,0,1,4.09-9H92.76v-61a5.41,5.41,0,0,1,5.41-5.41h53.66a5.41,5.41,0,0,1,5.41,5.41v61h15.43a5.41,5.41,0,0,1,4.09,9L129.09,170A5.41,5.41,0,0,1,125,171.9Z"/><path class="cls-1" d="M151.83,45.22v66.38h20.84L125,166.49,77.33,111.61H98.17V45.22h53.66m0-10.82H98.17A10.82,10.82,0,0,0,87.35,45.22v55.56h-10a10.82,10.82,0,0,0-8.17,17.92l47.67,54.89a10.82,10.82,0,0,0,16.34,0l47.67-54.89a10.82,10.82,0,0,0-8.17-17.92h-10V45.22A10.82,10.82,0,0,0,151.83,34.4Z"/><polygon class="cls-2" points="151.83 111.61 151.83 45.22 98.17 45.22 98.17 111.61 77.33 111.61 125 166.49 172.67 111.61 151.83 111.61"/></g></g></svg>