<svg xmlns="http://www.w3.org/2000/svg" viewBox="0 0 250 250"><defs><style>.cls-1{fill:#5593d7;}.cls-2{fill:#fff;}</style></defs><title>Asset 35</title><g id="Layer_2" data-name="Layer 2"><g id="annotations"><circle class="cls-1" cx="125" cy="125" r="125"/><path class="cls-2" d="M141.8,96v89.23q0,11.92,2.77,15.23t10.84,3.79v4.33H94.6v-4.33q7.46-.24,11.08-4.33,2.41-2.77,2.41-14.69V119.46q0-11.92-2.77-15.23T94.6,100.44V96ZM124.94,41.43A18.6,18.6,0,0,1,143.6,60.1a17.78,17.78,0,0,1-5.48,13.13,18.08,18.08,0,0,1-13.19,5.42A18.5,18.5,0,0,1,106.4,60.1a18.08,18.08,0,0,1,5.42-13.19A17.78,17.78,0,0,1,124.94,41.43Z"/></g></g></svg>