<svg xmlns="http://www.w3.org/2000/svg" viewBox="0 0 250 250"><defs><style>.cls-1{fill:#dd94b7;}.cls-2{fill:#fff;}.cls-3{fill:#5593d7;}</style></defs><title>Asset 30</title><g id="Layer_2" data-name="Layer 2"><g id="annotations"><circle class="cls-1" cx="125" cy="125" r="122.95"/><path class="cls-1" d="M125,250A125,125,0,1,1,250,125,125.14,125.14,0,0,1,125,250ZM125,4.1A120.9,120.9,0,1,0,245.9,125,121,121,0,0,0,125,4.1Z"/><ellipse class="cls-2" cx="67.68" cy="187.57" rx="18.88" ry="22.19"/><line class="cls-3" x1="79.46" y1="187.72" x2="79.46" y2="72.45"/><rect class="cls-2" x="72.86" y="72.45" width="13.19" height="115.27"/><ellipse class="cls-2" cx="158.56" cy="159.26" rx="18.88" ry="22.19"/><line class="cls-3" x1="170.55" y1="159.26" x2="170.55" y2="44"/><rect class="cls-2" x="163.95" y="44" width="13.19" height="115.27"/><polygon class="cls-1" points="170.55 80.58 79.46 109.03 79.46 72.45 170.55 44 170.55 80.58"/><path class="cls-2" d="M72.86,118V67.6L177.14,35V85.43ZM86.05,77.3v22.76L164,75.73V53Z"/></g></g></svg>