<svg xmlns="http://www.w3.org/2000/svg" viewBox="0 0 250 250"><defs><style>.cls-1{fill:#f9cd5f;}.cls-2{fill:#fff;}</style></defs><title>Asset 29</title><g id="Layer_2" data-name="Layer 2"><g id="annotations"><circle class="cls-1" cx="125" cy="125" r="125"/><rect class="cls-2" x="59.02" y="40.85" width="138.35" height="164.11" transform="translate(-14.88 17.69) rotate(-7.46)"/><rect class="cls-1" x="74.74" y="60.11" width="106.19" height="106.19" transform="translate(-13.62 17.56) rotate(-7.46)"/><path class="cls-2" d="M167.54,146l-.59-4.47a35.24,35.24,0,1,0-69.89,9.15l.59,4.47Z"/><circle class="cls-2" cx="124.65" cy="96.21" r="25.41" transform="translate(-11.44 17) rotate(-7.46)"/><path class="cls-1" d="M124.63,127.57a31.38,31.38,0,1,1,4.09-.27A31.41,31.41,0,0,1,124.63,127.57Zm.06-50.82a20.25,20.25,0,0,0-2.57.17,19.46,19.46,0,1,0,21.82,16.76h0a19.47,19.47,0,0,0-19.25-16.93Z"/></g></g></svg>