<svg xmlns="http://www.w3.org/2000/svg" viewBox="0 0 250 250"><defs><style>.cls-1{fill:#9b8bd6;}.cls-2{fill:#fff;}</style></defs><title>Asset 26</title><g id="Layer_2" data-name="Layer 2"><g id="annotations"><circle class="cls-1" cx="125" cy="125" r="125"/><rect class="cls-2" x="39.26" y="79.27" width="171.49" height="120.54" rx="15.21" ry="15.21"/><path class="cls-1" d="M195.53,202H54.47A17.38,17.38,0,0,1,37.11,184.6V94.49A17.38,17.38,0,0,1,54.47,77.12H195.53a17.38,17.38,0,0,1,17.36,17.36V184.6A17.38,17.38,0,0,1,195.53,202ZM54.47,81.42A13.08,13.08,0,0,0,41.4,94.49V184.6a13.08,13.08,0,0,0,13.07,13.07H195.53A13.08,13.08,0,0,0,208.6,184.6V94.49a13.08,13.08,0,0,0-13.07-13.07Z"/><path class="cls-1" d="M112.09,178.47a29.87,29.87,0,0,0-29.78-29.78H79.22a29.87,29.87,0,0,0-29.78,29.78v5.81h62.65Z"/><path class="cls-2" d="M114.27,186.47h-67v-8a32,32,0,0,1,32-32h3.09a32,32,0,0,1,32,32ZM51.62,182.1H109.9v-3.63a27.62,27.62,0,0,0-27.59-27.6H79.22a27.63,27.63,0,0,0-27.6,27.6Z"/><circle class="cls-1" cx="79.62" cy="135.24" r="22.57" transform="translate(-1.21 0.72) rotate(-0.51)"/><path class="cls-2" d="M79.6,162a26.74,26.74,0,0,1-.23-53.47h.24A26.78,26.78,0,0,1,106.35,135h0a26.77,26.77,0,0,1-26.5,27Zm0-45.14h-.17a18.4,18.4,0,0,0,.16,36.81h.17A18.43,18.43,0,0,0,98,135.07h0A18.43,18.43,0,0,0,79.62,116.83Z"/><rect class="cls-1" x="119.4" y="115.33" width="72.64" height="14.64" rx="7.32" ry="7.32"/><rect class="cls-1" x="119.4" y="141.37" width="72.64" height="14.64" rx="7.32" ry="7.32"/><rect class="cls-1" x="109.9" y="32.91" width="30.21" height="66.57" rx="12.31" ry="12.31"/><path class="cls-2" d="M127.8,103.64H122.2a16.49,16.49,0,0,1-16.47-16.48v-42A16.49,16.49,0,0,1,122.2,28.74h5.59a16.49,16.49,0,0,1,16.47,16.47v42A16.49,16.49,0,0,1,127.8,103.64ZM122.2,37.08a8.15,8.15,0,0,0-8.14,8.14v42a8.15,8.15,0,0,0,8.14,8.14h5.59a8.15,8.15,0,0,0,8.14-8.14v-42a8.15,8.15,0,0,0-8.14-8.14Z"/></g></g></svg>