<svg xmlns="http://www.w3.org/2000/svg" viewBox="0 0 250 250"><defs><style>.cls-1{fill:#f79f48;}.cls-2{fill:#fff;}.cls-3{fill:none;}</style></defs><title>Asset 33</title><g id="Layer_2" data-name="Layer 2"><g id="annotations"><path class="cls-1" d="M56.46,136.73h5.67a43.81,43.81,0,0,1,16,3V120a44.11,44.11,0,0,1,44.05-44.06h5.67A44.11,44.11,0,0,1,171.89,120v18.61a43.9,43.9,0,0,1,12.63-1.86h5.67a44.11,44.11,0,0,1,43.71,38.6,120.74,120.74,0,1,0-220.18-5.26A44.13,44.13,0,0,1,56.46,136.73Z"/><path class="cls-2" d="M159.54,144.53V120a31.74,31.74,0,0,0-31.71-31.71h-5.67A31.74,31.74,0,0,0,90.46,120v27.11a44,44,0,0,1,15.73,33.7v61.63a122,122,0,0,0,34.28.48v-62.1A44,44,0,0,1,159.54,144.53Z"/><path class="cls-1" d="M84.28,120a38,38,0,0,1,37.88-37.88h5.67A38,38,0,0,1,165.72,120v21a43.71,43.71,0,0,1,6.18-2.37V120a44.11,44.11,0,0,0-44.06-44.06h-5.67A44.11,44.11,0,0,0,78.11,120v19.77a43.88,43.88,0,0,1,6.17,3Z"/><path class="cls-1" d="M90.46,120a31.74,31.74,0,0,1,31.7-31.71h5.67A31.74,31.74,0,0,1,159.54,120v24.56a44.06,44.06,0,0,1,6.18-3.57V120a38,38,0,0,0-37.88-37.88h-5.67A38,38,0,0,0,84.28,120v22.76a44.28,44.28,0,0,1,6.18,4.35Z"/><path class="cls-2" d="M78.11,234.43v-81a31.51,31.51,0,0,0-16-4.34H56.46a31.74,31.74,0,0,0-31.71,31.7v9.66A121.18,121.18,0,0,0,78.11,234.43Z"/><path class="cls-2" d="M90.46,166.58v72.27q1.68.5,3.37,1v-59A31.5,31.5,0,0,0,90.46,166.58Z"/><path class="cls-2" d="M84.28,236.83V158.13a31.87,31.87,0,0,0-6.17-4.71v81Q81.15,235.71,84.28,236.83Z"/><path class="cls-2" d="M90.46,238.85V166.58a31.86,31.86,0,0,0-6.18-8.44v78.69Q87.34,237.92,90.46,238.85Z"/><path class="cls-1" d="M56.46,142.9h5.67a37.52,37.52,0,0,1,16,3.57v-6.73a43.81,43.81,0,0,0-16-3H56.46a44.13,44.13,0,0,0-42.74,33.34q2.2,5.21,4.87,10.16A38,38,0,0,1,56.46,142.9Z"/><path class="cls-1" d="M90.46,147.08v8.64A37.7,37.7,0,0,1,100,180.78v60.49q3.06.64,6.18,1.13V180.78A44,44,0,0,0,90.46,147.08Z"/><path class="cls-1" d="M84.28,142.73a43.88,43.88,0,0,0-6.17-3v6.73a38,38,0,0,1,6.17,3.65Z"/><path class="cls-1" d="M90.46,155.72v-8.64a44.28,44.28,0,0,0-6.18-4.35v7.39A38.38,38.38,0,0,1,90.46,155.72Z"/><path class="cls-1" d="M24.75,180.78a31.74,31.74,0,0,1,31.71-31.7h5.67a31.51,31.51,0,0,1,16,4.34v-6.95a37.52,37.52,0,0,0-16-3.57H56.46a38,38,0,0,0-37.87,37.33q2.83,5.27,6.16,10.22Z"/><path class="cls-1" d="M90.46,155.72v10.86a31.5,31.5,0,0,1,3.37,14.21v59q3.06.81,6.17,1.47V180.78A37.7,37.7,0,0,0,90.46,155.72Z"/><path class="cls-1" d="M84.28,158.13v-8a38,38,0,0,0-6.17-3.65v6.95A31.87,31.87,0,0,1,84.28,158.13Z"/><path class="cls-1" d="M90.46,166.58V155.72a38.38,38.38,0,0,0-6.18-5.6v8A31.86,31.86,0,0,1,90.46,166.58Z"/><path class="cls-2" d="M221.9,195.17V180.78a31.74,31.74,0,0,0-31.71-31.7h-5.67a31.52,31.52,0,0,0-12.63,2.63v82.71A121.15,121.15,0,0,0,221.9,195.17Z"/><path class="cls-2" d="M152.82,180.78v59.86q3.4-.8,6.72-1.8V161.3A31.53,31.53,0,0,0,152.82,180.78Z"/><path class="cls-2" d="M165.72,236.83q3.13-1.12,6.18-2.4V151.71a31.72,31.72,0,0,0-6.18,3.57Z"/><path class="cls-2" d="M159.54,161.3v77.54q3.12-.93,6.18-2V155.28A32,32,0,0,0,159.54,161.3Z"/><path class="cls-1" d="M190.19,136.73h-5.67a43.9,43.9,0,0,0-12.63,1.86v6.51a37.53,37.53,0,0,1,12.64-2.19h5.67a38,38,0,0,1,37.88,37.88V186a120.42,120.42,0,0,0,5.83-10.7A44.11,44.11,0,0,0,190.19,136.73Z"/><path class="cls-1" d="M159.54,152.38v-7.86a44,44,0,0,0-19.07,36.26v62.1q3.11-.4,6.17-1V180.78A37.81,37.81,0,0,1,159.54,152.38Z"/><path class="cls-1" d="M165.72,147.95a37.74,37.74,0,0,1,6.18-2.86v-6.51a43.71,43.71,0,0,0-6.18,2.37Z"/><path class="cls-1" d="M159.54,152.38a38.2,38.2,0,0,1,6.18-4.43v-7a44.06,44.06,0,0,0-6.18,3.57Z"/><path class="cls-1" d="M190.2,142.9h-5.67a37.53,37.53,0,0,0-12.64,2.19v6.62a31.52,31.52,0,0,1,12.63-2.63h5.67a31.74,31.74,0,0,1,31.71,31.7v14.39q3.29-4.42,6.18-9.14v-5.25A38,38,0,0,0,190.2,142.9Z"/><path class="cls-1" d="M159.54,161.3v-8.92a37.81,37.81,0,0,0-12.89,28.4v61.15q3.12-.56,6.18-1.29V180.78A31.53,31.53,0,0,1,159.54,161.3Z"/><path class="cls-1" d="M165.72,155.28a31.72,31.72,0,0,1,6.18-3.57v-6.62a37.74,37.74,0,0,0-6.18,2.86Z"/><path class="cls-1" d="M159.54,161.3a32,32,0,0,1,6.18-6v-7.33a38.2,38.2,0,0,0-6.18,4.43Z"/><circle class="cls-3" cx="125" cy="125" r="118.87"/><path class="cls-1" d="M125,13A112,112,0,1,1,13,125,112.14,112.14,0,0,1,125,13m0-13A125,125,0,1,0,250,125,125,125,0,0,0,125,0Z"/><circle class="cls-2" cx="123.28" cy="63.56" r="33.92" transform="translate(-0.57 1.11) rotate(-0.51)"/><path class="cls-1" d="M123.26,103a39.45,39.45,0,0,1-.34-78.9,38.66,38.66,0,0,1,28,11.3A39.45,39.45,0,0,1,123.63,103Zm0-67.85H123a28.4,28.4,0,0,0-19.64,48.65A27.77,27.77,0,0,0,123.53,92a28.4,28.4,0,0,0-.24-56.8Z"/><circle class="cls-2" cx="57.23" cy="125.29" r="33.92" transform="translate(-1.12 0.52) rotate(-0.51)"/><path class="cls-1" d="M57.22,164.74a39.45,39.45,0,0,1-.34-78.9h.36a39.45,39.45,0,0,1,.35,78.9Zm0-67.85H57a28.4,28.4,0,0,0,.25,56.8h.26a28.4,28.4,0,0,0-.26-56.8Z"/><circle class="cls-2" cx="189.32" cy="125.29" r="33.92" transform="translate(-1.12 1.71) rotate(-0.51)"/><path class="cls-1" d="M189.32,164.74a39.45,39.45,0,0,1-.35-78.9h.36a39.46,39.46,0,0,1,39.44,39.09h0a39.45,39.45,0,0,1-39.1,39.81Zm0-67.85h-.26a28.4,28.4,0,0,0,.25,56.8h.26A28.39,28.39,0,0,0,217.72,125h0a28.39,28.39,0,0,0-28.39-28.14Z"/></g></g></svg>