<?xml version="1.0" encoding="utf-8"?>
<!-- Generator: Adobe Illustrator 19.1.0, SVG Export Plug-In . SVG Version: 6.00 Build 0)  -->
<svg version="1.1" id="Layer_1" xmlns="http://www.w3.org/2000/svg" xmlns:xlink="http://www.w3.org/1999/xlink" x="0px" y="0px"
	 viewBox="0 0 130 130" style="enable-background:new 0 0 130 130;" xml:space="preserve">
<style type="text/css">
	.st0{fill:#FFFFFF;}
	.st1{fill:#FFE576;}
	.st2{fill:#5592D7;}
</style>
<g>
	<circle class="st0" cx="65" cy="65" r="63.5"/>
	<g>
		<g>
			<g>
				<g>
					<g>
						<path class="st1" d="M43.1,92.9c0.7-2.6,1.7-5.7,3.1-9.4l-2.9-2.4c-3.2,7.7-5,14.3-5.9,18.8c4.2-1.8,10.3-4.9,17.3-9.5
							L51.7,88C48.4,90.1,45.5,91.7,43.1,92.9z"/>
					</g>
				</g>
			</g>
			<g>
				<path class="st2" d="M74.8,91.8c2.3-7.2-0.7-13.3-1.3-14.4c4.2-4.1,10.9-11.5,15.7-22.6c4.4-10.2,5.4-19.4,5.6-25.1
					c-5.6,1.3-14.3,4.1-23.5,10.5c-9.9,6.9-15.8,14.9-18.9,19.9c-1.2-0.4-7.8-2.1-14.4,1.7c-7.7,4.4-9,12.6-9.2,13.6
					c1.7-0.8,4.5-1.9,8.1-2.1c3.2-0.2,5.8,0.2,7.5,0.7c-0.9,2-1.8,4-2.7,6c2.4,2.1,4.8,4.1,7.1,6.2c2.5,1.9,5,3.8,7.5,5.8
					c1.8-1.3,3.6-2.6,5.4-3.9c0.8,1.6,1.8,4.1,2.2,7.2c0.4,3.6,0,6.5-0.5,8.4C64.3,103.2,72,100.2,74.8,91.8z M68.6,61.6
					c-2.5-2.1-2.9-5.8-0.8-8.3c2.1-2.5,5.8-2.9,8.3-0.8c2.5,2.1,2.9,5.8,0.8,8.3C74.9,63.3,71.2,63.7,68.6,61.6z"/>
			</g>
		</g>
	</g>
</g>
</svg>
