<svg xmlns="http://www.w3.org/2000/svg" xmlns:xlink="http://www.w3.org/1999/xlink" viewBox="0 0 28.09 28.39"><defs><style>.cls-1,.cls-7{fill:none;}.cls-2{clip-path:url(#clip-path);}.cls-3{fill:#fff;}.cls-4{fill:#fdfeff;}.cls-5{fill:#5593d7;}.cls-6{fill:#cfd1d3;}.cls-7{stroke:#999;stroke-linecap:round;stroke-miterlimit:10;stroke-width:2.66px;}</style><clipPath id="clip-path"><circle class="cls-1" cx="14.02" cy="15.19" r="12.73"/></clipPath></defs><title>Asset 2</title><g id="Layer_2" data-name="Layer 2"><g id="design"><g class="cls-2"><circle class="cls-3" cx="14.02" cy="15.19" r="12.85"/><circle class="cls-4" cx="14.02" cy="15.19" r="12.86"/><g id="_Group_" data-name="&lt;Group&gt;"><path id="_Compound_Path_" data-name="&lt;Compound Path&gt;" class="cls-5" d="M19.95,18.83,14.56,8.28A.64.64,0,0,0,14,7.94h0a.64.64,0,0,0-.57.35L8.09,18.83a.64.64,0,1,0,1.14.58l1.52-3h6.53l1.54,3a.64.64,0,0,0,1.14-.58Zm-8.55-3.7L14,10l2.63,5.14Z"/></g><g id="_Group_2" data-name="&lt;Group&gt;"><path id="_Path_" data-name="&lt;Path&gt;" class="cls-6" d="M7.31,16.54H.6a.6.6,0,0,1,0-1.2H6.95l2.7-5.18a.6.6,0,1,1,1.07.56L7.84,16.22A.6.6,0,0,1,7.31,16.54Z"/></g><g id="_Group_3" data-name="&lt;Group&gt;"><path id="_Path_2" data-name="&lt;Path&gt;" class="cls-6" d="M8.66,22.28A3.16,3.16,0,0,1,5.84,17.7a.6.6,0,1,1,1.07.54A2,2,0,1,0,10.4,20l1.15-2.28h1.58a.6.6,0,0,1,0,1.2H12.3l-.82,1.62A3.14,3.14,0,0,1,8.66,22.28Z"/></g><g id="_Group_4" data-name="&lt;Group&gt;"><path id="_Path_3" data-name="&lt;Path&gt;" class="cls-7" d="M14,6"/></g><g id="_Group_5" data-name="&lt;Group&gt;"><path id="_Path_4" data-name="&lt;Path&gt;" class="cls-6" d="M11,9.43a.6.6,0,0,1-.54-.87l.71-1.4a2.53,2.53,0,0,1,1.72-1.53.6.6,0,1,1,.31,1.16c-.45.12-.65.31-1,.91l-.71,1.4A.6.6,0,0,1,11,9.43Z"/></g><g id="_Group_6" data-name="&lt;Group&gt;"><path id="_Path_5" data-name="&lt;Path&gt;" class="cls-6" d="M20.78,16.54a.6.6,0,0,1-.53-.32l-2.87-5.51a.6.6,0,1,1,1.07-.56l2.7,5.18h6.34a.6.6,0,0,1,0,1.2H20.78Z"/></g><g id="_Group_7" data-name="&lt;Group&gt;"><path id="_Path_6" data-name="&lt;Path&gt;" class="cls-6" d="M19.43,22.28a3.14,3.14,0,0,1-2.82-1.73l-.82-1.62h-.84a.6.6,0,1,1,0-1.2h1.58L17.69,20a2,2,0,0,0,3.49-1.76.6.6,0,0,1,1.07-.54,3.16,3.16,0,0,1-2.82,4.58Z"/></g><g id="_Group_8" data-name="&lt;Group&gt;"><path id="_Path_7" data-name="&lt;Path&gt;" class="cls-6" d="M17.09,9.43a.6.6,0,0,1-.54-.33l-.71-1.4c-.31-.62-.59-.89-1-1a.6.6,0,1,1,.31-1.16,2.79,2.79,0,0,1,1.8,1.63l.71,1.4a.6.6,0,0,1-.54.87Z"/></g><g id="_Group_9" data-name="&lt;Group&gt;"><path id="_Path_8" data-name="&lt;Path&gt;" class="cls-6" d="M19.38,25.14A6,6,0,0,1,14,21.86h0a6,6,0,0,1-11.24-4A.6.6,0,1,1,4,18.1a4.81,4.81,0,0,0,9,3.2l.19-.38a.6.6,0,0,1,.54-.33h.66a.6.6,0,0,1,.54.33l.21.4a4.82,4.82,0,0,0,9-3.21.6.6,0,0,1,1.18-.26,6,6,0,0,1-5.88,7.3Z"/></g><g id="_Group_10" data-name="&lt;Group&gt;"><path id="_Path_9" data-name="&lt;Path&gt;" class="cls-6" d="M22.77,14.45a.6.6,0,0,1-.54-.33l-4-7.74A4.79,4.79,0,0,0,14,3.76h0A4.79,4.79,0,0,0,9.69,6.4l-3.9,7.72a.6.6,0,1,1-1.07-.54l3.9-7.72A6,6,0,0,1,14,2.56h0a6,6,0,0,1,5.36,3.28l4,7.74a.6.6,0,0,1-.54.88Z"/></g><g id="_Group_11" data-name="&lt;Group&gt;"><path id="_Compound_Path_2" data-name="&lt;Compound Path&gt;" class="cls-6" d="M19.38,27.7h0A8.58,8.58,0,0,1,14,25.82,8.58,8.58,0,0,1,1,15.25L6.34,4.71A8.58,8.58,0,0,1,14,0h0a8.58,8.58,0,0,1,7.64,4.67L27,15.22A8.58,8.58,0,0,1,19.38,27.7Zm0-1.2h0a7.37,7.37,0,0,0,6.56-10.73L20.55,5.22A7.37,7.37,0,0,0,14,1.2h0a7.37,7.37,0,0,0-6.56,4L2.08,15.8a7.37,7.37,0,0,0,11.53,8.78.6.6,0,0,1,.81,0,7.38,7.38,0,0,0,5,1.91Z"/></g><g id="_Group_12" data-name="&lt;Group&gt;"><circle id="_Path_10" data-name="&lt;Path&gt;" class="cls-6" cx="14.01" cy="13.62" r="0.77"/></g></g><path class="cls-5" d="M14,2A13.21,13.21,0,1,0,27.23,15.19,13.21,13.21,0,0,0,14,2Zm0,25.51a12.3,12.3,0,1,1,12.3-12.3A12.3,12.3,0,0,1,14,27.49Z"/></g></g></svg>