<svg xmlns="http://www.w3.org/2000/svg" viewBox="0 0 38.77 20.71"><defs><style>.cls-1{fill:#cacbcc;}.cls-2{fill:#a8a8a8;}.cls-3{fill:#5593d7;}.cls-4{fill:#79797a;}</style></defs><title>info toggle</title><g id="Layer_2" data-name="Layer 2"><g id="annotations"><rect class="cls-1" width="38.77" height="20.71" rx="10.35" ry="10.35" transform="translate(38.77 20.71) rotate(-180)"/><rect class="cls-2" x="2.36" y="2.35" width="33.89" height="16" rx="8" ry="8" transform="translate(38.61 20.71) rotate(180)"/><circle class="cls-3" cx="28.25" cy="10.35" r="8"/><path class="cls-4" d="M13.53,8.16v5.71a1.72,1.72,0,0,0,.18,1,1,1,0,0,0,.69.24v.28H10.51v-.28a.94.94,0,0,0,.71-.28,1.72,1.72,0,0,0,.15-.94V9.66a1.72,1.72,0,0,0-.18-1,1,1,0,0,0-.69-.24V8.16ZM12.45,4.66a1.19,1.19,0,0,1,1.19,1.19,1.14,1.14,0,0,1-.35.84,1.16,1.16,0,0,1-.84.35,1.18,1.18,0,0,1-1.19-1.19A1.16,1.16,0,0,1,11.61,5,1.14,1.14,0,0,1,12.45,4.66Z"/></g></g></svg>