<svg xmlns="http://www.w3.org/2000/svg" viewBox="0 0 120 130" enable-background="new 0 0 120 130"><pattern width="69" height="69" patternUnits="userSpaceOnUse" viewBox="2.125 -70.896 69 69" overflow="visible"><path fill="none" d="M71.125-1.896h-69v-69h69z"/><path fill="#F7BC60" d="M71.125-1.896h-69v-69h69z"/><g fill="#fff"><path d="M61.772-71.653c.018.072.007.127-.026.19-.053.1-.112.063-.165.128-.05.063-.098.276-.078.362-.17.058-.01.227-.015.35-.002.05-.04.105-.045.16-.01.12.017.267.068.37.097.2.268.414.435.545.19.148.365.572.608.63.177.043.384-.103.543-.142.18-.043.397.01.57-.053.223-.08.128-.337.29-.45.103-.074.286-.01.405-.05.2-.07.34-.264.377-.46.016-.083.01-.146.04-.222.037-.103.11-.16.09-.293-.01-.062-.053-.12-.066-.187-.02-.114.003-.224.002-.337-.003-.2.017-.38-.078-.55-.38-.688-1.236-.93-1.975-.79-.18.035-.288.127-.443.208-.17.088-.14.166-.318.224-.082.026-.217.124-.216.224.002.115.005.05.012.17-.02.01-.022-.006-.03-.026M54.105-71.653c.018.072.007.127-.026.19-.054.1-.113.063-.166.128-.05.063-.1.276-.08.362-.168.058-.01.227-.014.35-.002.05-.04.105-.045.16-.01.12.017.267.068.37.097.2.268.414.435.545.19.148.365.572.608.63.177.043.384-.103.543-.142.18-.043.396.01.57-.053.222-.08.127-.337.288-.45.104-.074.287-.01.406-.05.2-.07.34-.264.376-.46.016-.083.01-.146.04-.222.037-.103.11-.16.09-.293-.01-.062-.053-.12-.065-.187-.022-.114.002-.224 0-.337-.003-.2.017-.38-.078-.55-.38-.688-1.236-.93-1.975-.79-.18.035-.287.127-.442.208-.17.088-.14.166-.318.224-.08.026-.216.124-.215.224.002.115.005.05.012.17-.02.01-.022-.006-.03-.026M46.44-71.653c.017.072.006.127-.027.19-.053.1-.112.063-.165.128-.05.063-.1.276-.08.362-.168.058-.01.227-.014.35-.002.05-.04.105-.045.16-.01.12.016.267.067.37.097.2.268.414.435.545.19.148.365.572.608.63.177.043.384-.103.543-.142.18-.043.397.01.57-.053.223-.08.128-.337.29-.45.103-.074.286-.01.405-.05.2-.07.34-.264.376-.46.016-.083.01-.146.04-.222.037-.103.11-.16.09-.293-.01-.062-.053-.12-.065-.187-.023-.114 0-.224 0-.337-.004-.2.016-.38-.08-.55-.38-.688-1.235-.93-1.974-.79-.18.035-.287.127-.442.208-.17.088-.14.166-.318.224-.08.026-.216.124-.215.224.003.115.006.05.013.17-.02.01-.022-.006-.03-.026M38.772-71.653c.018.072.007.127-.026.19-.053.1-.112.063-.165.128-.05.063-.098.276-.078.362-.17.058-.01.227-.015.35-.002.05-.04.105-.045.16-.01.12.017.267.068.37.097.2.268.414.435.545.19.148.365.572.608.63.177.043.384-.103.543-.142.18-.043.397.01.57-.053.223-.08.128-.337.29-.45.103-.074.286-.01.405-.05.2-.07.34-.264.377-.46.016-.083.01-.146.04-.222.037-.103.11-.16.09-.293-.01-.062-.053-.12-.065-.187-.022-.114.002-.224 0-.337-.003-.2.017-.38-.078-.55-.38-.688-1.236-.93-1.975-.79-.18.035-.288.127-.443.208-.17.088-.14.166-.318.224-.082.026-.217.124-.216.224.002.115.005.05.012.17-.02.01-.022-.006-.03-.026M31.105-71.653c.017.072.007.127-.026.19-.054.1-.113.063-.166.128-.05.063-.1.276-.08.362-.168.058-.01.227-.014.35-.002.05-.04.105-.045.16-.01.12.017.267.068.37.097.2.268.414.435.545.19.148.365.572.608.63.177.043.384-.103.543-.142.18-.043.396.01.57-.053.222-.08.127-.337.288-.45.104-.074.287-.01.406-.05.2-.07.34-.264.376-.46.016-.083.01-.146.04-.222.037-.103.11-.16.09-.293-.01-.062-.053-.12-.065-.187-.022-.114.002-.224 0-.337-.003-.2.017-.38-.078-.55-.38-.688-1.236-.93-1.975-.79-.18.035-.287.127-.442.208-.17.088-.14.166-.318.224-.08.026-.216.124-.215.224 0 .115.005.05.012.17-.022.01-.022-.006-.03-.026M23.44-71.653c.016.072.006.127-.027.19-.053.1-.112.063-.165.128-.05.063-.1.276-.08.362-.168.058-.01.227-.014.35-.002.05-.04.105-.045.16-.01.12.016.267.067.37.097.2.268.414.435.545.19.148.365.572.608.63.177.043.384-.103.543-.142.18-.043.397.01.57-.053.223-.08.128-.337.29-.45.103-.074.286-.01.405-.05.2-.07.34-.264.376-.46.016-.083.01-.146.04-.222.037-.103.11-.16.09-.293-.01-.062-.053-.12-.066-.187-.022-.114.002-.224 0-.337-.003-.2.017-.38-.078-.55-.38-.688-1.236-.93-1.975-.79-.18.035-.287.127-.442.208-.17.088-.14.166-.318.224-.08.026-.216.124-.215.224 0 .115.005.05.012.17-.02.01-.02-.006-.03-.026M15.773-71.653c.017.072.007.127-.026.19-.053.1-.112.063-.165.128-.05.063-.1.276-.08.362-.168.058-.01.227-.014.35-.002.05-.04.105-.045.16-.01.12.017.267.068.37.098.2.27.414.436.545.19.148.365.572.608.63.177.043.384-.103.543-.142.18-.043.397.01.57-.053.223-.08.128-.337.29-.45.103-.074.286-.01.405-.05.2-.07.34-.264.376-.46.016-.083.01-.146.04-.222.037-.103.11-.16.09-.293-.01-.062-.053-.12-.066-.187-.022-.114.002-.224 0-.337-.003-.2.017-.38-.078-.55-.38-.688-1.236-.93-1.975-.79-.18.035-.288.127-.443.208-.17.088-.14.166-.318.224-.082.026-.217.124-.216.224.002.115.005.05.012.17-.02.01-.02-.006-.03-.026M8.105-71.653c.018.072.007.127-.026.19-.054.1-.113.063-.166.128-.05.063-.1.276-.08.362-.168.058-.01.227-.014.35-.002.05-.04.105-.045.16-.01.12.017.267.068.37.097.2.268.414.435.545.19.148.365.572.608.63.177.043.384-.103.543-.142.18-.043.396.01.57-.053.222-.08.127-.337.288-.45.105-.074.287-.01.406-.05.2-.07.34-.264.376-.46.016-.083.01-.146.04-.222.037-.103.11-.16.09-.293-.01-.062-.053-.12-.065-.187-.022-.114.002-.224 0-.337-.003-.2.017-.38-.078-.55-.38-.688-1.236-.93-1.975-.79-.18.035-.287.127-.442.208-.17.088-.14.166-.318.224-.08.026-.216.124-.215.224 0 .115.005.05.012.17-.022.01-.022-.006-.03-.026M.44-71.653c.017.072.007.127-.027.19-.052.1-.113.063-.165.128-.05.063-.1.276-.08.362-.168.058-.01.227-.014.35-.002.05-.04.105-.045.16-.01.12.016.267.067.37.097.2.268.414.435.545.19.148.365.572.608.63.177.043.384-.103.543-.142.18-.043.397.01.57-.053.223-.08.128-.337.29-.45.103-.074.286-.01.405-.05.2-.07.34-.264.376-.46.016-.083.01-.146.04-.222.037-.103.11-.16.09-.293-.01-.062-.052-.12-.065-.187-.022-.114 0-.224 0-.337-.004-.2.016-.38-.08-.55-.38-.688-1.235-.93-1.974-.79-.18.035-.287.127-.442.208-.17.088-.14.166-.318.224-.08.026-.215.124-.215.224.003.115.006.05.013.17-.02.01-.02-.006-.03-.026"/></g><path fill="#fff" d="M69.44-71.653c.016.072.007.127-.027.19-.052.1-.113.063-.165.128-.05.063-.1.276-.08.362-.168.058-.01.227-.014.35-.002.05-.04.105-.045.16-.01.12.016.267.067.37.097.2.268.414.435.545.19.148.365.572.608.63.177.043.384-.103.543-.142.18-.043.397.01.57-.053.223-.08.128-.337.29-.45.103-.074.286-.01.405-.05.2-.07.34-.264.376-.46.016-.083.01-.146.04-.222.037-.103.11-.16.09-.293-.01-.062-.052-.12-.065-.187-.022-.114 0-.224 0-.337-.003-.2.017-.38-.078-.55-.38-.688-1.236-.93-1.975-.79-.18.035-.287.127-.442.208-.17.088-.14.166-.318.224-.08.026-.215.124-.215.224.002.115.005.05.012.17-.02.01-.02-.006-.03-.026M.495-71.653c.018.072.008.127-.026.19-.053.1-.114.063-.166.128-.05.063-.1.276-.08.362-.168.058-.01.227-.014.35-.002.05-.04.105-.045.16-.01.12.017.267.068.37.097.2.268.414.435.545.19.148.365.572.608.63.177.043.384-.103.543-.142.18-.043.396.01.57-.053.222-.08.127-.337.288-.45.104-.074.287-.01.406-.05.2-.07.34-.264.376-.46.016-.083.01-.146.04-.222.037-.103.11-.16.09-.293-.01-.062-.052-.12-.065-.187-.02-.114.002-.224 0-.337-.003-.2.017-.38-.078-.55-.38-.688-1.236-.93-1.975-.79-.18.035-.287.127-.442.208-.17.088-.14.166-.318.224-.08.026-.215.124-.215.224.003.116.006.052.013.17-.02.01-.02-.005-.03-.025"/><g fill="#fff"><path d="M69.44-64c.016.07.006.126-.027.19-.053.1-.112.062-.165.127-.05.063-.1.276-.08.362-.168.057-.01.226-.014.35-.002.05-.04.104-.045.16-.01.12.016.266.067.37.097.198.268.413.435.544.19.148.365.572.608.63.177.043.384-.103.543-.142.18-.043.397.01.57-.053.223-.08.128-.338.29-.45.103-.075.286-.01.405-.052.2-.07.34-.263.376-.46.016-.082.01-.145.04-.22.038-.103.11-.16.09-.294-.01-.062-.053-.12-.065-.187-.023-.114 0-.224 0-.337-.003-.2.017-.38-.078-.55-.38-.688-1.236-.93-1.975-.79-.18.035-.287.127-.442.208-.17.088-.14.166-.318.224-.08.026-.216.124-.215.224 0 .115.005.05.012.17-.02.01-.02-.006-.03-.026M61.778-64c.018.07.007.126-.026.19-.053.1-.112.062-.165.127-.05.063-.1.276-.08.362-.168.057-.008.226-.014.35-.002.05-.04.104-.045.16-.01.12.017.266.068.37.097.198.268.413.435.544.19.148.366.572.61.63.176.043.383-.103.542-.142.18-.043.397.01.57-.053.223-.08.128-.338.29-.45.103-.075.286-.01.405-.052.2-.07.34-.263.376-.46.016-.082.01-.145.04-.22.038-.103.11-.16.09-.294-.01-.062-.053-.12-.065-.187-.022-.114.002-.224 0-.337-.003-.2.017-.38-.078-.55-.38-.688-1.236-.93-1.975-.79-.18.035-.287.127-.442.208-.17.088-.14.166-.318.224-.08.026-.216.124-.215.224 0 .115.005.05.012.17-.02.01-.02-.006-.03-.026M54.118-64c.018.07.007.126-.026.19-.053.1-.112.062-.165.127-.05.063-.1.276-.08.362-.168.057-.008.226-.014.35-.002.05-.04.104-.045.16-.01.12.017.266.068.37.097.198.268.413.435.544.19.148.366.572.61.63.176.043.383-.103.542-.142.18-.043.397.01.57-.053.223-.08.128-.338.29-.45.103-.075.286-.01.405-.052.2-.07.34-.263.376-.46.016-.082.01-.145.04-.22.037-.103.11-.16.09-.294-.01-.062-.053-.12-.065-.187-.022-.114.002-.224 0-.337-.003-.2.017-.38-.078-.55-.38-.688-1.236-.93-1.975-.79-.18.035-.287.127-.442.208-.17.088-.14.166-.318.224-.08.026-.216.124-.215.224 0 .115.005.05.012.17-.02.01-.02-.006-.03-.026M46.458-64c.018.07.007.126-.026.19-.053.1-.112.062-.165.127-.05.063-.1.276-.08.362-.168.057-.008.226-.014.35-.003.05-.04.104-.045.16-.01.12.017.266.068.37.097.198.268.413.435.544.19.148.366.572.61.63.176.043.383-.103.542-.142.18-.043.397.01.57-.053.223-.08.128-.338.29-.45.103-.075.286-.01.405-.052.2-.07.34-.263.376-.46.016-.082.01-.145.04-.22.038-.103.11-.16.09-.294-.01-.062-.053-.12-.065-.187-.022-.114.002-.224 0-.337-.003-.2.017-.38-.078-.55-.38-.688-1.236-.93-1.975-.79-.18.035-.287.127-.442.208-.17.088-.14.166-.318.224-.08.026-.216.124-.215.224 0 .115.005.05.012.17-.02.01-.02-.006-.03-.026M38.797-64c.017.07.007.126-.026.19-.052.1-.11.062-.164.127-.05.063-.1.276-.08.362-.168.057-.008.226-.014.35-.002.05-.04.104-.045.16-.01.12.017.266.068.37.097.198.268.413.435.544.19.148.365.572.608.63.177.043.384-.103.543-.142.18-.043.398.01.572-.053.222-.08.127-.338.288-.45.104-.075.287-.01.406-.052.2-.07.34-.263.376-.46.016-.082.01-.145.04-.22.038-.103.11-.16.09-.294-.01-.062-.053-.12-.066-.187-.022-.114.002-.224 0-.337-.003-.2.017-.38-.078-.55-.38-.688-1.236-.93-1.975-.79-.18.035-.287.127-.442.208-.17.088-.138.166-.317.224-.08.026-.216.124-.215.224 0 .115.005.05.012.17-.02.01-.02-.006-.03-.026M31.137-64c.018.07.007.126-.026.19-.052.1-.11.062-.164.127-.05.063-.1.276-.08.362-.168.057-.008.226-.014.35-.003.05-.04.104-.045.16-.01.12.017.266.068.37.097.198.268.413.435.544.19.148.365.572.608.63.177.043.384-.103.543-.142.18-.043.398.01.572-.053.222-.08.127-.338.288-.45.104-.075.287-.01.406-.052.2-.07.34-.263.376-.46.016-.082.01-.145.04-.22.038-.103.11-.16.09-.294-.01-.062-.053-.12-.065-.187-.022-.114.002-.224 0-.337-.003-.2.017-.38-.078-.55-.38-.688-1.237-.93-1.976-.79-.18.035-.287.127-.442.208-.17.088-.14.166-.318.224-.08.026-.216.124-.215.224 0 .115.004.05.01.17-.02.01-.02-.006-.03-.026M23.477-64c.017.07.007.126-.026.19-.052.1-.11.062-.164.127-.05.063-.1.276-.08.362-.168.057-.008.226-.014.35-.002.05-.04.104-.045.16-.01.12.017.266.068.37.097.198.268.413.435.544.19.148.365.572.608.63.177.043.384-.103.543-.142.18-.043.398.01.572-.053.222-.08.127-.338.288-.45.104-.075.287-.01.406-.052.2-.07.34-.263.376-.46.016-.082.01-.145.04-.22.037-.103.11-.16.09-.294-.01-.062-.053-.12-.066-.187-.022-.114.002-.224 0-.337-.003-.2.017-.38-.078-.55-.38-.688-1.236-.93-1.975-.79-.18.035-.287.127-.442.208-.17.088-.138.166-.317.224-.08.026-.216.124-.215.224.002.115.005.05.012.17-.02.01-.02-.006-.03-.026M15.816-64c.018.07.007.126-.026.19-.053.1-.112.062-.165.127-.05.063-.1.276-.08.362-.168.057-.008.226-.014.35 0 .05-.04.104-.044.16-.01.12.017.266.068.37.097.198.268.413.435.544.19.148.364.572.607.63.177.043.384-.103.543-.142.18-.043.397.01.57-.053.223-.08.13-.338.29-.45.103-.075.286-.01.405-.052.2-.07.34-.263.376-.46.017-.082.01-.145.04-.22.04-.103.11-.16.09-.294-.01-.062-.052-.12-.064-.187-.022-.114.002-.224 0-.337-.003-.2.017-.38-.078-.55-.38-.688-1.236-.93-1.975-.79-.18.035-.287.127-.442.208-.17.088-.138.166-.317.224-.08.026-.216.124-.215.224.002.115.005.05.012.17-.02.01-.02-.006-.03-.026M8.156-64c.018.07.007.126-.026.19-.053.1-.112.062-.165.127-.05.063-.1.276-.08.362-.168.057-.008.226-.014.35 0 .05-.04.104-.044.16-.01.12.017.266.068.37.097.198.268.413.435.544.19.148.364.572.607.63.177.043.384-.103.543-.142.18-.043.397.01.57-.053.223-.08.128-.338.29-.45.103-.075.286-.01.405-.052.2-.07.34-.263.376-.46.017-.082.01-.145.04-.22.038-.103.11-.16.09-.294-.01-.062-.052-.12-.064-.187-.022-.114.002-.224 0-.337-.003-.2.017-.38-.078-.55-.38-.688-1.236-.93-1.975-.79-.18.035-.287.127-.442.208-.17.088-.138.166-.317.224-.08.026-.216.124-.215.224 0 .115.005.05.012.17-.02.01-.02-.006-.03-.026M.495-64c.018.07.007.126-.026.19-.054.1-.113.062-.166.127-.05.063-.1.276-.08.362-.168.057-.01.226-.014.35-.002.05-.04.104-.045.16-.01.12.017.266.068.37.097.198.268.413.435.544.19.148.365.572.608.63.177.043.384-.103.543-.142.18-.042.397.01.57-.052.223-.08.128-.337.29-.45.103-.074.286-.01.405-.05.2-.07.34-.264.376-.46.017-.083.01-.146.04-.222.04-.102.11-.16.09-.293-.01-.062-.052-.12-.064-.187-.022-.114.002-.224 0-.337-.003-.2.017-.378-.078-.55-.38-.687-1.236-.928-1.975-.788-.18.034-.287.126-.442.207-.17.087-.138.165-.317.223-.08.026-.216.124-.215.224 0 .115.005.05.012.17-.02.01-.02-.006-.03-.026M69.44-56.348c.016.072.006.127-.027.19-.053.1-.112.063-.165.128-.05.063-.1.276-.08.362-.168.058-.01.227-.014.35-.002.05-.04.106-.045.16-.01.12.016.267.067.37.097.2.268.414.435.545.19.148.365.572.608.63.177.043.384-.103.543-.142.18-.043.397.01.57-.053.223-.08.128-.337.29-.45.103-.074.286-.01.405-.05.2-.07.34-.264.376-.46.016-.083.01-.146.04-.222.038-.103.11-.16.09-.293-.01-.062-.053-.12-.065-.187-.023-.114 0-.224 0-.337-.003-.2.017-.38-.078-.55-.38-.688-1.236-.93-1.975-.79-.18.035-.287.127-.442.208-.17.09-.14.167-.318.225-.08.026-.216.124-.215.224 0 .114.005.05.012.168-.02.01-.02-.005-.03-.025M61.778-56.348c.018.072.007.127-.026.19-.053.1-.112.063-.165.128-.05.063-.1.276-.08.362-.168.058-.008.227-.014.35-.002.05-.04.106-.045.16-.01.12.017.267.068.37.097.2.268.414.435.545.19.148.366.572.61.63.176.043.383-.103.542-.142.18-.043.397.01.57-.053.223-.08.128-.337.29-.45.103-.074.286-.01.405-.05.2-.07.34-.264.376-.46.016-.083.01-.146.04-.222.038-.103.11-.16.09-.293-.01-.062-.053-.12-.065-.187-.022-.114.002-.224 0-.337-.003-.2.017-.38-.078-.55-.38-.688-1.236-.93-1.975-.79-.18.035-.287.127-.442.208-.17.09-.14.167-.318.225-.08.026-.216.124-.215.224 0 .114.005.05.012.168-.02.01-.02-.005-.03-.025M54.118-56.348c.018.072.007.127-.026.19-.053.1-.112.063-.165.128-.05.063-.1.276-.08.362-.168.058-.008.227-.014.35-.002.05-.04.106-.045.16-.01.12.017.267.068.37.097.2.268.414.435.545.19.148.366.572.61.63.176.043.383-.103.542-.142.18-.043.397.01.57-.053.223-.08.128-.337.29-.45.103-.074.286-.01.405-.05.2-.07.34-.264.376-.46.016-.083.01-.146.04-.222.037-.103.11-.16.09-.293-.01-.062-.053-.12-.065-.187-.022-.114.002-.224 0-.337-.003-.2.017-.38-.078-.55-.38-.688-1.236-.93-1.975-.79-.18.035-.287.127-.442.208-.17.09-.14.167-.318.225-.08.026-.216.124-.215.224 0 .114.005.05.012.168-.02.01-.02-.005-.03-.025M46.458-56.348c.018.072.007.127-.026.19-.053.1-.112.063-.165.128-.05.063-.1.276-.08.362-.168.058-.008.227-.014.35-.003.05-.04.106-.045.16-.01.12.017.267.068.37.097.2.268.414.435.545.19.148.366.572.61.63.176.043.383-.103.542-.142.18-.043.397.01.57-.053.223-.08.128-.337.29-.45.103-.074.286-.01.405-.05.2-.07.34-.264.376-.46.016-.083.01-.146.04-.222.038-.103.11-.16.09-.293-.01-.062-.053-.12-.065-.187-.022-.114.002-.224 0-.337-.003-.2.017-.38-.078-.55-.38-.688-1.236-.93-1.975-.79-.18.035-.287.127-.442.208-.17.09-.14.167-.318.225-.08.026-.216.124-.215.224 0 .114.005.05.012.168-.02.01-.02-.005-.03-.025M38.797-56.348c.017.072.007.127-.026.19-.052.1-.11.063-.164.128-.05.063-.1.276-.08.362-.168.058-.008.227-.014.35-.002.05-.04.106-.045.16-.01.12.017.267.068.37.097.2.268.414.435.545.19.148.365.572.608.63.177.043.384-.103.543-.142.18-.043.398.01.572-.053.222-.08.127-.337.288-.45.104-.074.287-.01.406-.05.2-.07.34-.264.376-.46.016-.083.01-.146.04-.222.038-.103.11-.16.09-.293-.01-.062-.053-.12-.066-.187-.022-.114.002-.224 0-.337-.003-.2.017-.38-.078-.55-.38-.688-1.236-.93-1.975-.79-.18.035-.287.127-.442.208-.17.09-.138.167-.317.225-.08.026-.216.124-.215.224 0 .114.005.05.012.168-.02.01-.02-.005-.03-.025M31.137-56.348c.018.072.007.127-.026.19-.052.1-.11.063-.164.128-.05.063-.1.276-.08.362-.168.058-.008.227-.014.35-.003.05-.04.106-.045.16-.01.12.017.267.068.37.097.2.268.414.435.545.19.148.365.572.608.63.177.043.384-.103.543-.142.18-.043.398.01.572-.053.222-.08.127-.337.288-.45.104-.074.287-.01.406-.05.2-.07.34-.264.376-.46.016-.083.01-.146.04-.222.038-.103.11-.16.09-.293-.01-.062-.053-.12-.065-.187-.022-.114.002-.224 0-.337-.003-.2.017-.38-.078-.55-.38-.688-1.237-.93-1.976-.79-.18.035-.287.127-.442.208-.17.09-.14.167-.318.225-.08.026-.216.124-.215.224 0 .114.004.05.01.168-.02.01-.02-.005-.03-.025M23.477-56.348c.017.072.007.127-.026.19-.052.1-.11.063-.164.128-.05.063-.1.276-.08.362-.168.058-.008.227-.014.35-.002.05-.04.106-.045.16-.01.12.017.267.068.37.097.2.268.414.435.545.19.148.365.572.608.63.177.043.384-.103.543-.142.18-.043.398.01.572-.053.222-.08.127-.337.288-.45.104-.074.287-.01.406-.05.2-.07.34-.264.376-.46.016-.083.01-.146.04-.222.037-.103.11-.16.09-.293-.01-.062-.053-.12-.066-.187-.022-.114.002-.224 0-.337-.003-.2.017-.38-.078-.55-.38-.688-1.236-.93-1.975-.79-.18.035-.287.127-.442.208-.17.09-.138.167-.317.225-.08.026-.216.124-.215.224.002.114.005.05.012.168-.02.01-.02-.005-.03-.025M15.816-56.348c.018.072.007.127-.026.19-.053.1-.112.063-.165.128-.05.063-.1.276-.08.362-.168.058-.008.227-.014.35 0 .05-.04.106-.044.16-.01.12.017.267.068.37.097.2.268.414.435.545.19.148.364.572.607.63.177.043.384-.103.543-.142.18-.043.397.01.57-.053.223-.08.13-.337.29-.45.103-.074.286-.01.405-.05.2-.07.34-.264.376-.46.017-.083.01-.146.04-.222.04-.103.11-.16.09-.293-.01-.062-.052-.12-.064-.187-.022-.114.002-.224 0-.337-.003-.2.017-.38-.078-.55-.38-.688-1.236-.93-1.975-.79-.18.035-.287.127-.442.208-.17.09-.138.167-.317.225-.08.026-.216.124-.215.224.002.114.005.05.012.168-.02.01-.02-.005-.03-.025M8.156-56.348c.018.072.007.127-.026.19-.053.1-.112.063-.165.128-.05.063-.1.276-.08.362-.168.058-.008.227-.014.35 0 .05-.04.106-.044.16-.01.12.017.267.068.37.097.2.268.414.435.545.19.148.364.572.607.63.177.043.384-.103.543-.142.18-.043.397.01.57-.053.223-.08.128-.337.29-.45.103-.074.286-.01.405-.05.2-.07.34-.264.376-.46.017-.083.01-.146.04-.222.038-.103.11-.16.09-.293-.01-.062-.052-.12-.064-.187-.022-.114.002-.224 0-.337-.003-.2.017-.38-.078-.55-.38-.688-1.236-.93-1.975-.79-.18.035-.287.127-.442.208-.17.09-.138.167-.317.225-.08.026-.216.124-.215.224 0 .114.005.05.012.168-.02.01-.02-.005-.03-.025M.495-56.348c.018.072.007.127-.026.19-.054.1-.113.063-.166.128-.05.063-.1.276-.08.362-.168.058-.01.227-.014.35-.002.05-.04.106-.045.16-.01.12.017.267.068.37.097.2.268.414.435.545.19.148.365.572.608.63.177.043.384-.103.543-.142.18-.043.396.01.57-.053.222-.08.127-.337.288-.45.104-.074.287-.01.406-.05.2-.07.34-.264.376-.46.016-.083.01-.146.04-.222.038-.103.11-.16.09-.293-.01-.062-.053-.12-.065-.187-.022-.114.002-.224 0-.337-.003-.2.017-.38-.078-.55-.38-.688-1.236-.93-1.975-.79-.18.035-.287.127-.442.208-.17.09-.14.167-.318.225-.08.026-.216.124-.215.224.003.116.006.052.013.17-.02.01-.02-.005-.03-.025M69.44-48.695c.016.072.006.127-.027.19-.053.1-.112.063-.165.128-.05.063-.1.276-.08.362-.168.058-.01.226-.014.35-.002.05-.04.105-.045.16-.01.12.016.267.067.37.097.2.268.414.435.545.19.148.365.572.608.63.177.043.384-.103.543-.142.18-.043.397.01.57-.053.223-.08.128-.337.29-.45.103-.074.286-.01.405-.05.2-.07.34-.264.376-.46.016-.083.01-.146.04-.222.038-.103.11-.16.09-.293-.01-.062-.053-.12-.065-.187-.023-.114 0-.224 0-.337-.003-.2.017-.38-.078-.55-.38-.688-1.236-.93-1.975-.79-.18.035-.287.127-.442.208-.17.088-.14.166-.318.224-.08.026-.216.124-.215.224 0 .115.005.05.012.17-.02.01-.02-.006-.03-.026M61.778-48.695c.018.072.007.127-.026.19-.053.1-.112.063-.165.128-.05.063-.1.276-.08.362-.168.058-.008.226-.014.35-.002.05-.04.105-.045.16-.01.12.017.267.068.37.097.2.268.414.435.545.19.148.366.572.61.63.176.043.383-.103.542-.142.18-.043.397.01.57-.053.223-.08.128-.337.29-.45.103-.074.286-.01.405-.05.2-.07.34-.264.376-.46.016-.083.01-.146.04-.222.038-.103.11-.16.09-.293-.01-.062-.053-.12-.065-.187-.022-.114.002-.224 0-.337-.003-.2.017-.38-.078-.55-.38-.688-1.236-.93-1.975-.79-.18.035-.287.127-.442.208-.17.088-.14.166-.318.224-.08.026-.216.124-.215.224 0 .115.005.05.012.17-.02.01-.02-.006-.03-.026M54.118-48.695c.018.072.007.127-.026.19-.053.1-.112.063-.165.128-.05.063-.1.276-.08.362-.168.058-.008.226-.014.35-.002.05-.04.105-.045.16-.01.12.017.267.068.37.097.2.268.414.435.545.19.148.366.572.61.63.176.043.383-.103.542-.142.18-.043.397.01.57-.053.223-.08.128-.337.29-.45.103-.074.286-.01.405-.05.2-.07.34-.264.376-.46.016-.083.01-.146.04-.222.037-.103.11-.16.09-.293-.01-.062-.053-.12-.065-.187-.022-.114.002-.224 0-.337-.003-.2.017-.38-.078-.55-.38-.688-1.236-.93-1.975-.79-.18.035-.287.127-.442.208-.17.088-.14.166-.318.224-.08.026-.216.124-.215.224 0 .115.005.05.012.17-.02.01-.02-.006-.03-.026M46.458-48.695c.018.072.007.127-.026.19-.053.1-.112.063-.165.128-.05.063-.1.276-.08.362-.168.058-.008.226-.014.35-.003.05-.04.105-.045.16-.01.12.017.267.068.37.097.2.268.414.435.545.19.148.366.572.61.63.176.043.383-.103.542-.142.18-.043.397.01.57-.053.223-.08.128-.337.29-.45.103-.074.286-.01.405-.05.2-.07.34-.264.376-.46.016-.083.01-.146.04-.222.038-.103.11-.16.09-.293-.01-.062-.053-.12-.065-.187-.022-.114.002-.224 0-.337-.003-.2.017-.38-.078-.55-.38-.688-1.236-.93-1.975-.79-.18.035-.287.127-.442.208-.17.088-.14.166-.318.224-.08.026-.216.124-.215.224 0 .115.005.05.012.17-.02.01-.02-.006-.03-.026M38.797-48.695c.017.072.007.127-.026.19-.052.1-.11.063-.164.128-.05.063-.1.276-.08.362-.168.058-.008.226-.014.35-.002.05-.04.105-.045.16-.01.12.017.267.068.37.097.2.268.414.435.545.19.148.365.572.608.63.177.043.384-.103.543-.142.18-.043.398.01.572-.053.222-.08.127-.337.288-.45.104-.074.287-.01.406-.05.2-.07.34-.264.376-.46.016-.083.01-.146.04-.222.038-.103.11-.16.09-.293-.01-.062-.053-.12-.066-.187-.022-.114.002-.224 0-.337-.003-.2.017-.38-.078-.55-.38-.688-1.236-.93-1.975-.79-.18.035-.287.127-.442.208-.17.088-.138.166-.317.224-.08.026-.216.124-.215.224 0 .115.005.05.012.17-.02.01-.02-.006-.03-.026M31.137-48.695c.018.072.007.127-.026.19-.052.1-.11.063-.164.128-.05.063-.1.276-.08.362-.168.058-.008.226-.014.35-.003.05-.04.105-.045.16-.01.12.017.267.068.37.097.2.268.414.435.545.19.148.365.572.608.63.177.043.384-.103.543-.142.18-.043.398.01.572-.053.222-.08.127-.337.288-.45.104-.074.287-.01.406-.05.2-.07.34-.264.376-.46.016-.083.01-.146.04-.222.038-.103.11-.16.09-.293-.01-.062-.053-.12-.065-.187-.022-.114.002-.224 0-.337-.003-.2.017-.38-.078-.55-.38-.688-1.237-.93-1.976-.79-.18.035-.287.127-.442.208-.17.088-.14.166-.318.224-.08.026-.216.124-.215.224 0 .115.004.05.01.17-.02.01-.02-.006-.03-.026M23.477-48.695c.017.072.007.127-.026.19-.052.1-.11.063-.164.128-.05.063-.1.276-.08.362-.168.058-.008.226-.014.35-.002.05-.04.105-.045.16-.01.12.017.267.068.37.097.2.268.414.435.545.19.148.365.572.608.63.177.043.384-.103.543-.142.18-.043.398.01.572-.053.222-.08.127-.337.288-.45.104-.074.287-.01.406-.05.2-.07.34-.264.376-.46.016-.083.01-.146.04-.222.037-.103.11-.16.09-.293-.01-.062-.053-.12-.066-.187-.022-.114.002-.224 0-.337-.003-.2.017-.38-.078-.55-.38-.688-1.236-.93-1.975-.79-.18.035-.287.127-.442.208-.17.088-.138.166-.317.224-.08.026-.216.124-.215.224.002.115.005.05.012.17-.02.01-.02-.006-.03-.026M15.816-48.695c.018.072.007.127-.026.19-.053.1-.112.063-.165.128-.05.063-.1.276-.08.362-.168.058-.008.226-.014.35 0 .05-.04.105-.044.16-.01.12.017.267.068.37.097.2.268.414.435.545.19.148.364.572.607.63.177.043.384-.103.543-.142.18-.043.397.01.57-.053.223-.08.13-.337.29-.45.103-.074.286-.01.405-.05.2-.07.34-.264.376-.46.017-.083.01-.146.04-.222.04-.103.11-.16.09-.293-.01-.062-.052-.12-.064-.187-.022-.114.002-.224 0-.337-.003-.2.017-.38-.078-.55-.38-.688-1.236-.93-1.975-.79-.18.035-.287.127-.442.208-.17.088-.138.166-.317.224-.08.026-.216.124-.215.224.002.115.005.05.012.17-.02.01-.02-.006-.03-.026M8.156-48.695c.018.072.007.127-.026.19-.053.1-.112.063-.165.128-.05.063-.1.276-.08.362-.168.058-.008.226-.014.35 0 .05-.04.105-.044.16-.01.12.017.267.068.37.097.2.268.414.435.545.19.148.364.572.607.63.177.043.384-.103.543-.142.18-.043.397.01.57-.053.223-.08.128-.337.29-.45.103-.074.286-.01.405-.05.2-.07.34-.264.376-.46.017-.083.01-.146.04-.222.038-.103.11-.16.09-.293-.01-.062-.052-.12-.064-.187-.022-.114.002-.224 0-.337-.003-.2.017-.38-.078-.55-.38-.688-1.236-.93-1.975-.79-.18.035-.287.127-.442.208-.17.088-.138.166-.317.224-.08.026-.216.124-.215.224 0 .115.005.05.012.17-.02.01-.02-.006-.03-.026M.495-48.695c.018.072.007.127-.026.19-.054.1-.113.063-.166.128-.05.063-.1.276-.08.362-.168.058-.01.226-.014.35-.002.05-.04.105-.045.16-.01.12.017.267.068.37.097.2.268.414.435.545.19.148.365.572.608.63.177.043.384-.103.543-.142.18-.043.396.01.57-.053.222-.08.127-.337.288-.45.104-.074.287-.01.406-.05.2-.07.34-.264.376-.46.016-.083.01-.146.04-.222.038-.103.11-.16.09-.293-.01-.062-.053-.12-.065-.187-.022-.114.002-.224 0-.337-.003-.2.017-.38-.078-.55-.38-.688-1.236-.93-1.975-.79-.18.035-.287.127-.442.208-.17.088-.14.166-.318.224-.08.026-.216.124-.215.224 0 .115.005.05.012.17-.022.01-.022-.006-.03-.026M69.44-41.042c.016.072.006.127-.027.19-.053.1-.112.063-.165.128-.05.063-.1.276-.08.362-.168.058-.01.227-.014.35-.002.05-.04.105-.045.16-.01.12.016.267.067.37.097.2.268.414.435.545.19.148.365.572.608.63.177.043.384-.103.543-.142.18-.042.397.01.57-.052.223-.08.128-.337.29-.45.103-.074.286-.01.405-.05.2-.07.34-.264.376-.46.016-.083.01-.146.04-.222.038-.103.11-.16.09-.293-.01-.062-.053-.12-.065-.187-.023-.114 0-.224 0-.337-.003-.2.017-.38-.078-.55-.38-.69-1.236-.93-1.975-.79-.18.034-.287.126-.442.207-.17.088-.14.166-.318.224-.08.027-.216.125-.215.225 0 .115.005.05.012.17-.02.01-.02-.006-.03-.026M61.778-41.042c.018.072.007.127-.026.19-.053.1-.112.063-.165.128-.05.063-.1.276-.08.362-.168.058-.008.227-.014.35-.002.05-.04.105-.045.16-.01.12.017.267.068.37.097.2.268.414.435.545.19.148.366.572.61.63.176.043.383-.103.542-.142.18-.042.397.01.57-.052.223-.08.128-.337.29-.45.103-.074.286-.01.405-.05.2-.07.34-.264.376-.46.016-.083.01-.146.04-.222.038-.103.11-.16.09-.293-.01-.062-.053-.12-.065-.187-.022-.114.002-.224 0-.337-.003-.2.017-.38-.078-.55-.38-.69-1.236-.93-1.975-.79-.18.034-.287.126-.442.207-.17.088-.14.166-.318.224-.08.027-.216.125-.215.225 0 .115.005.05.012.17-.02.01-.02-.006-.03-.026M54.118-41.042c.018.072.007.127-.026.19-.053.1-.112.063-.165.128-.05.063-.1.276-.08.362-.168.058-.008.227-.014.35-.002.05-.04.105-.045.16-.01.12.017.267.068.37.097.2.268.414.435.545.19.148.366.572.61.63.176.043.383-.103.542-.142.18-.042.397.01.57-.052.223-.08.128-.337.29-.45.103-.074.286-.01.405-.05.2-.07.34-.264.376-.46.016-.083.01-.146.04-.222.037-.103.11-.16.09-.293-.01-.062-.053-.12-.065-.187-.022-.114.002-.224 0-.337-.003-.2.017-.38-.078-.55-.38-.69-1.236-.93-1.975-.79-.18.034-.287.126-.442.207-.17.088-.14.166-.318.224-.08.027-.216.125-.215.225 0 .115.005.05.012.17-.02.01-.02-.006-.03-.026M46.458-41.042c.018.072.007.127-.026.19-.053.1-.112.063-.165.128-.05.063-.1.276-.08.362-.168.058-.008.227-.014.35-.003.05-.04.105-.045.16-.01.12.017.267.068.37.097.2.268.414.435.545.19.148.366.572.61.63.176.043.383-.103.542-.142.18-.042.397.01.57-.052.223-.08.128-.337.29-.45.103-.074.286-.01.405-.05.2-.07.34-.264.376-.46.016-.083.01-.146.04-.222.038-.103.11-.16.09-.293-.01-.062-.053-.12-.065-.187-.022-.114.002-.224 0-.337-.003-.2.017-.38-.078-.55-.38-.69-1.236-.93-1.975-.79-.18.034-.287.126-.442.207-.17.088-.14.166-.318.224-.08.027-.216.125-.215.225 0 .115.005.05.012.17-.02.01-.02-.006-.03-.026M38.797-41.042c.017.072.007.127-.026.19-.052.1-.11.063-.164.128-.05.063-.1.276-.08.362-.168.058-.008.227-.014.35-.002.05-.04.105-.045.16-.01.12.017.267.068.37.097.2.268.414.435.545.19.148.365.572.608.63.177.043.384-.103.543-.142.18-.042.398.01.572-.052.222-.08.127-.337.288-.45.104-.074.287-.01.406-.05.2-.07.34-.264.376-.46.016-.083.01-.146.04-.222.038-.103.11-.16.09-.293-.01-.062-.053-.12-.066-.187-.022-.114.002-.224 0-.337-.003-.2.017-.38-.078-.55-.38-.69-1.236-.93-1.975-.79-.18.034-.287.126-.442.207-.17.088-.138.166-.317.224-.08.027-.216.125-.215.225 0 .115.005.05.012.17-.02.01-.02-.006-.03-.026M31.137-41.042c.018.072.007.127-.026.19-.052.1-.11.063-.164.128-.05.063-.1.276-.08.362-.168.058-.008.227-.014.35-.003.05-.04.105-.045.16-.01.12.017.267.068.37.097.2.268.414.435.545.19.148.365.572.608.63.177.043.384-.103.543-.142.18-.042.398.01.572-.052.222-.08.127-.337.288-.45.104-.074.287-.01.406-.05.2-.07.34-.264.376-.46.016-.083.01-.146.04-.222.038-.103.11-.16.09-.293-.01-.062-.053-.12-.065-.187-.022-.114.002-.224 0-.337-.003-.2.017-.38-.078-.55-.38-.69-1.237-.93-1.976-.79-.18.034-.287.126-.442.207-.17.088-.14.166-.318.224-.08.027-.216.125-.215.225 0 .115.004.05.01.17-.02.01-.02-.006-.03-.026M23.477-41.042c.017.072.007.127-.026.19-.052.1-.11.063-.164.128-.05.063-.1.276-.08.362-.168.058-.008.227-.014.35-.002.05-.04.105-.045.16-.01.12.017.267.068.37.097.2.268.414.435.545.19.148.365.572.608.63.177.043.384-.103.543-.142.18-.042.398.01.572-.052.222-.08.127-.337.288-.45.104-.074.287-.01.406-.05.2-.07.34-.264.376-.46.016-.083.01-.146.04-.222.037-.103.11-.16.09-.293-.01-.062-.053-.12-.066-.187-.022-.114.002-.224 0-.337-.003-.2.017-.38-.078-.55-.38-.69-1.236-.93-1.975-.79-.18.034-.287.126-.442.207-.17.088-.138.166-.317.224-.08.027-.216.125-.215.225.002.115.005.05.012.17-.02.01-.02-.006-.03-.026M15.816-41.042c.018.072.007.127-.026.19-.053.1-.112.063-.165.128-.05.063-.1.276-.08.362-.168.058-.008.227-.014.35 0 .05-.04.105-.044.16-.01.12.017.267.068.37.097.2.268.414.435.545.19.148.364.572.607.63.177.043.384-.103.543-.142.18-.042.397.01.57-.052.223-.08.13-.337.29-.45.103-.074.286-.01.405-.05.2-.07.34-.264.376-.46.017-.083.01-.146.04-.222.04-.103.11-.16.09-.293-.01-.062-.052-.12-.064-.187-.022-.114.002-.224 0-.337-.003-.2.017-.38-.078-.55-.38-.69-1.236-.93-1.975-.79-.18.034-.287.126-.442.207-.17.088-.138.166-.317.224-.08.027-.216.125-.215.225.002.115.005.05.012.17-.02.01-.02-.006-.03-.026M8.156-41.042c.018.072.007.127-.026.19-.053.1-.112.063-.165.128-.05.063-.1.276-.08.362-.168.058-.008.227-.014.35 0 .05-.04.105-.044.16-.01.12.017.267.068.37.097.2.268.414.435.545.19.148.364.572.607.63.177.043.384-.103.543-.142.18-.042.397.01.57-.052.223-.08.128-.337.29-.45.103-.074.286-.01.405-.05.2-.07.34-.264.376-.46.017-.083.01-.146.04-.222.038-.103.11-.16.09-.293-.01-.062-.052-.12-.064-.187-.022-.114.002-.224 0-.337-.003-.2.017-.38-.078-.55-.38-.69-1.236-.93-1.975-.79-.18.034-.287.126-.442.207-.17.088-.138.166-.317.224-.08.027-.216.125-.215.225 0 .115.005.05.012.17-.02.01-.02-.005-.03-.025M.495-41.042c.018.072.007.127-.026.19-.054.1-.113.063-.166.128-.05.063-.1.276-.08.362-.168.058-.01.227-.014.35-.002.05-.04.105-.045.16-.01.12.017.267.068.37.097.2.268.414.435.545.19.148.365.572.608.63.177.043.384-.103.543-.142.18-.042.396.01.57-.052.222-.08.127-.337.288-.45.104-.074.287-.01.406-.05.2-.07.34-.264.376-.46.016-.083.01-.146.04-.222.038-.103.11-.16.09-.293-.01-.062-.053-.12-.065-.187-.022-.114.002-.224 0-.337-.003-.2.017-.38-.078-.55-.38-.69-1.236-.93-1.975-.79-.18.034-.287.126-.442.207-.17.088-.14.166-.318.224-.08.027-.216.125-.215.225 0 .115.005.05.012.17-.022.01-.022-.006-.03-.026M69.44-33.39c.016.072.006.127-.027.19-.053.1-.112.063-.165.128-.05.063-.1.276-.08.362-.168.058-.01.227-.014.35-.002.05-.04.106-.045.16-.01.12.016.267.067.37.097.2.268.414.435.545.19.15.365.572.608.63.177.043.384-.103.543-.142.18-.043.397.01.57-.053.223-.08.128-.337.29-.45.103-.074.286-.01.405-.05.2-.07.34-.264.376-.46.016-.083.01-.145.04-.222.038-.103.11-.16.09-.293-.01-.062-.053-.12-.065-.187-.023-.114 0-.224 0-.337-.003-.2.017-.378-.078-.55-.38-.687-1.236-.928-1.975-.788-.18.034-.287.126-.442.207-.17.087-.14.165-.318.223-.08.026-.216.124-.215.224 0 .115.005.05.012.17-.02.01-.02-.006-.03-.026M61.778-33.39c.018.072.007.127-.026.19-.053.1-.112.063-.165.128-.05.063-.1.276-.08.362-.168.058-.008.227-.014.35-.002.05-.04.106-.045.16-.01.12.017.267.068.37.097.2.268.414.435.545.19.15.366.572.61.63.176.043.383-.103.542-.142.18-.043.397.01.57-.053.223-.08.128-.337.29-.45.103-.074.286-.01.405-.05.2-.07.34-.264.376-.46.016-.083.01-.145.04-.222.038-.103.11-.16.09-.293-.01-.062-.053-.12-.065-.187-.022-.114.002-.224 0-.337-.003-.2.017-.378-.078-.55-.38-.687-1.236-.928-1.975-.788-.18.034-.287.126-.442.207-.17.087-.14.165-.318.223-.08.026-.216.124-.215.224 0 .115.005.05.012.17-.02.01-.02-.006-.03-.026M54.118-33.39c.018.072.007.127-.026.19-.053.1-.112.063-.165.128-.05.063-.1.276-.08.362-.168.058-.008.227-.014.35-.002.05-.04.106-.045.16-.01.12.017.267.068.37.097.2.268.414.435.545.19.15.366.572.61.63.176.043.383-.103.542-.142.18-.043.397.01.57-.053.223-.08.128-.337.29-.45.103-.074.286-.01.405-.05.2-.07.34-.264.376-.46.016-.083.01-.145.04-.222.037-.103.11-.16.09-.293-.01-.062-.053-.12-.065-.187-.022-.114.002-.224 0-.337-.003-.2.017-.378-.078-.55-.38-.687-1.236-.928-1.975-.788-.18.034-.287.126-.442.207-.17.087-.14.165-.318.223-.08.026-.216.124-.215.224 0 .115.005.05.012.17-.02.01-.02-.006-.03-.026M46.458-33.39c.018.072.007.127-.026.19-.053.1-.112.063-.165.128-.05.063-.1.276-.08.362-.168.058-.008.227-.014.35-.003.05-.04.106-.045.16-.01.12.017.267.068.37.097.2.268.414.435.545.19.15.366.572.61.63.176.043.383-.103.542-.142.18-.043.397.01.57-.053.223-.08.128-.337.29-.45.103-.074.286-.01.405-.05.2-.07.34-.264.376-.46.016-.083.01-.145.04-.222.038-.103.11-.16.09-.293-.01-.062-.053-.12-.065-.187-.022-.114.002-.224 0-.337-.003-.2.017-.378-.078-.55-.38-.687-1.236-.928-1.975-.788-.18.034-.287.126-.442.207-.17.087-.14.165-.318.223-.08.026-.216.124-.215.224 0 .115.005.05.012.17-.02.01-.02-.006-.03-.026M38.797-33.39c.017.072.007.127-.026.19-.052.1-.11.063-.164.128-.05.063-.1.276-.08.362-.168.058-.008.227-.014.35-.002.05-.04.106-.045.16-.01.12.017.267.068.37.097.2.268.414.435.545.19.15.365.572.608.63.177.043.384-.103.543-.142.18-.043.398.01.572-.053.222-.08.127-.337.288-.45.104-.074.287-.01.406-.05.2-.07.34-.264.376-.46.016-.083.01-.145.04-.222.038-.103.11-.16.09-.293-.01-.062-.053-.12-.066-.187-.022-.114.002-.224 0-.337-.003-.2.017-.378-.078-.55-.38-.687-1.236-.928-1.975-.788-.18.034-.287.126-.442.207-.17.087-.138.165-.317.223-.08.026-.216.124-.215.224 0 .115.005.05.012.17-.02.01-.02-.006-.03-.026M31.137-33.39c.018.072.007.127-.026.19-.052.1-.11.063-.164.128-.05.063-.1.276-.08.362-.168.058-.008.227-.014.35-.003.05-.04.106-.045.16-.01.12.017.267.068.37.097.2.268.414.435.545.19.15.365.572.608.63.177.043.384-.103.543-.142.18-.043.398.01.572-.053.222-.08.127-.337.288-.45.104-.074.287-.01.406-.05.2-.07.34-.264.376-.46.016-.083.01-.145.04-.222.038-.103.11-.16.09-.293-.01-.062-.053-.12-.065-.187-.022-.114.002-.224 0-.337-.003-.2.017-.378-.078-.55-.38-.687-1.237-.928-1.976-.788-.18.034-.287.126-.442.207-.17.087-.14.165-.318.223-.08.026-.216.124-.215.224 0 .115.004.05.01.17-.02.01-.02-.006-.03-.026M23.477-33.39c.017.072.007.127-.026.19-.052.1-.11.063-.164.128-.05.063-.1.276-.08.362-.168.058-.008.227-.014.35-.002.05-.04.106-.045.16-.01.12.017.267.068.37.097.2.268.414.435.545.19.15.365.572.608.63.177.043.384-.103.543-.142.18-.043.398.01.572-.053.222-.08.127-.337.288-.45.104-.074.287-.01.406-.05.2-.07.34-.264.376-.46.016-.083.01-.145.04-.222.037-.103.11-.16.09-.293-.01-.062-.053-.12-.066-.187-.022-.114.002-.224 0-.337-.003-.2.017-.378-.078-.55-.38-.687-1.236-.928-1.975-.788-.18.034-.287.126-.442.207-.17.087-.138.165-.317.223-.08.026-.216.124-.215.224.002.115.005.05.012.17-.02.01-.02-.006-.03-.026M15.816-33.39c.018.072.007.127-.026.19-.053.1-.112.063-.165.128-.05.063-.1.276-.08.362-.168.058-.008.227-.014.35 0 .05-.04.106-.044.16-.01.12.017.267.068.37.097.2.268.414.435.545.19.15.364.572.607.63.177.043.384-.103.543-.142.18-.043.397.01.57-.053.223-.08.13-.337.29-.45.103-.074.286-.01.405-.05.2-.07.34-.264.376-.46.017-.083.01-.145.04-.222.04-.103.11-.16.09-.293-.01-.062-.052-.12-.064-.187-.022-.114.002-.224 0-.337-.003-.2.017-.378-.078-.55-.38-.687-1.236-.928-1.975-.788-.18.034-.287.126-.442.207-.17.087-.138.165-.317.223-.08.026-.216.124-.215.224.002.115.005.05.012.17-.02.01-.02-.006-.03-.026M8.156-33.39c.018.072.007.127-.026.19-.053.1-.112.063-.165.128-.05.063-.1.276-.08.362-.168.058-.008.227-.014.35 0 .05-.04.106-.044.16-.01.12.017.267.068.37.097.2.268.414.435.545.19.15.364.572.607.63.177.043.384-.103.543-.142.18-.043.397.01.57-.053.223-.08.128-.337.29-.45.103-.074.286-.01.405-.05.2-.07.34-.264.376-.46.017-.083.01-.145.04-.222.038-.103.11-.16.09-.293-.01-.062-.052-.12-.064-.187-.022-.114.002-.224 0-.337-.003-.2.017-.378-.078-.55-.38-.687-1.236-.928-1.975-.788-.18.034-.287.126-.442.207-.17.087-.138.165-.317.223-.08.026-.216.124-.215.224 0 .115.005.05.012.17-.02.01-.02-.006-.03-.026M.495-33.39c.018.072.007.127-.026.19-.054.1-.113.063-.166.128-.05.063-.1.276-.08.362-.168.058-.01.227-.014.35-.002.05-.04.106-.045.16-.01.12.017.267.068.37.097.2.268.414.435.545.19.15.365.572.608.63.177.043.384-.103.543-.142.18-.043.396.01.57-.053.222-.08.127-.337.288-.45.104-.074.287-.01.406-.05.2-.07.34-.264.376-.46.016-.083.01-.145.04-.222.038-.103.11-.16.09-.293-.01-.062-.053-.12-.065-.187-.022-.114.002-.224 0-.337-.003-.2.017-.378-.078-.55-.38-.687-1.236-.928-1.975-.788-.18.034-.287.126-.442.207-.17.087-.14.165-.318.223-.08.026-.216.124-.215.224.003.117.006.053.013.17-.02.012-.02-.004-.03-.024M69.44-25.736c.016.072.006.127-.027.19-.053.1-.112.063-.165.128-.05.063-.1.276-.08.362-.168.058-.01.227-.014.35-.002.05-.04.106-.045.16-.01.12.016.267.067.37.097.2.268.414.435.545.19.147.365.57.608.63.177.042.384-.104.543-.143.18-.043.397.01.57-.053.223-.08.128-.337.29-.45.103-.074.286-.01.405-.05.2-.07.34-.264.376-.46.016-.083.01-.146.04-.222.038-.102.11-.16.09-.293-.01-.062-.053-.12-.065-.187-.023-.114 0-.224 0-.337-.003-.2.017-.38-.078-.55-.38-.688-1.236-.93-1.975-.79-.18.035-.287.127-.442.208-.17.088-.14.166-.318.224-.08.026-.216.124-.215.224 0 .115.005.05.012.17-.02.01-.02-.006-.03-.026M61.778-25.736c.018.072.007.127-.026.19-.053.1-.112.063-.165.128-.05.063-.1.276-.08.362-.168.058-.008.227-.014.35-.002.05-.04.106-.045.16-.01.12.017.267.068.37.097.2.268.414.435.545.19.147.366.57.61.63.176.042.383-.104.542-.143.18-.043.397.01.57-.053.223-.08.128-.337.29-.45.103-.074.286-.01.405-.05.2-.07.34-.264.376-.46.016-.083.01-.146.04-.222.038-.102.11-.16.09-.293-.01-.062-.053-.12-.065-.187-.022-.114.002-.224 0-.337-.003-.2.017-.38-.078-.55-.38-.688-1.236-.93-1.975-.79-.18.035-.287.127-.442.208-.17.088-.14.166-.318.224-.08.026-.216.124-.215.224 0 .115.005.05.012.17-.02.01-.02-.006-.03-.026M54.118-25.736c.018.072.007.127-.026.19-.053.1-.112.063-.165.128-.05.063-.1.276-.08.362-.168.058-.008.227-.014.35-.002.05-.04.106-.045.16-.01.12.017.267.068.37.097.2.268.414.435.545.19.147.366.57.61.63.176.042.383-.104.542-.143.18-.043.397.01.57-.053.223-.08.128-.337.29-.45.103-.074.286-.01.405-.05.2-.07.34-.264.376-.46.016-.083.01-.146.04-.222.037-.102.11-.16.09-.293-.01-.062-.053-.12-.065-.187-.022-.114.002-.224 0-.337-.003-.2.017-.38-.078-.55-.38-.688-1.236-.93-1.975-.79-.18.035-.287.127-.442.208-.17.088-.14.166-.318.224-.08.026-.216.124-.215.224 0 .115.005.05.012.17-.02.01-.02-.006-.03-.026M46.458-25.736c.018.072.007.127-.026.19-.053.1-.112.063-.165.128-.05.063-.1.276-.08.362-.168.058-.008.227-.014.35-.003.05-.04.106-.045.16-.01.12.017.267.068.37.097.2.268.414.435.545.19.147.366.57.61.63.176.042.383-.104.542-.143.18-.043.397.01.57-.053.223-.08.128-.337.29-.45.103-.074.286-.01.405-.05.2-.07.34-.264.376-.46.016-.083.01-.146.04-.222.038-.102.11-.16.09-.293-.01-.062-.053-.12-.065-.187-.022-.114.002-.224 0-.337-.003-.2.017-.38-.078-.55-.38-.688-1.236-.93-1.975-.79-.18.035-.287.127-.442.208-.17.088-.14.166-.318.224-.08.026-.216.124-.215.224 0 .115.005.05.012.17-.02.01-.02-.006-.03-.026M38.797-25.736c.017.072.007.127-.026.19-.052.1-.11.063-.164.128-.05.063-.1.276-.08.362-.168.058-.008.227-.014.35-.002.05-.04.106-.045.16-.01.12.017.267.068.37.097.2.268.414.435.545.19.147.365.57.608.63.177.042.384-.104.543-.143.18-.043.398.01.572-.053.222-.08.127-.337.288-.45.104-.074.287-.01.406-.05.2-.07.34-.264.376-.46.016-.083.01-.146.04-.222.038-.102.11-.16.09-.293-.01-.062-.053-.12-.066-.187-.022-.114.002-.224 0-.337-.003-.2.017-.38-.078-.55-.38-.688-1.236-.93-1.975-.79-.18.035-.287.127-.442.208-.17.088-.138.166-.317.224-.08.026-.216.124-.215.224 0 .115.005.05.012.17-.02.01-.02-.006-.03-.026M31.137-25.736c.018.072.007.127-.026.19-.052.1-.11.063-.164.128-.05.063-.1.276-.08.362-.168.058-.008.227-.014.35-.003.05-.04.106-.045.16-.01.12.017.267.068.37.097.2.268.414.435.545.19.147.365.57.608.63.177.042.384-.104.543-.143.18-.043.398.01.572-.053.222-.08.127-.337.288-.45.104-.074.287-.01.406-.05.2-.07.34-.264.376-.46.016-.083.01-.146.04-.222.038-.102.11-.16.09-.293-.01-.062-.053-.12-.065-.187-.022-.114.002-.224 0-.337-.003-.2.017-.38-.078-.55-.38-.688-1.237-.93-1.976-.79-.18.035-.287.127-.442.208-.17.088-.14.166-.318.224-.08.026-.216.124-.215.224 0 .115.004.05.01.17-.02.01-.02-.006-.03-.026M23.477-25.736c.017.072.007.127-.026.19-.052.1-.11.063-.164.128-.05.063-.1.276-.08.362-.168.058-.008.227-.014.35-.002.05-.04.106-.045.16-.01.12.017.267.068.37.097.2.268.414.435.545.19.147.365.57.608.63.177.042.384-.104.543-.143.18-.043.398.01.572-.053.222-.08.127-.337.288-.45.104-.074.287-.01.406-.05.2-.07.34-.264.376-.46.016-.083.01-.146.04-.222.037-.102.11-.16.09-.293-.01-.062-.053-.12-.066-.187-.022-.114.002-.224 0-.337-.003-.2.017-.38-.078-.55-.38-.688-1.236-.93-1.975-.79-.18.035-.287.127-.442.208-.17.088-.138.166-.317.224-.08.026-.216.124-.215.224.002.115.005.05.012.17-.02.01-.02-.006-.03-.026M15.816-25.736c.018.072.007.127-.026.19-.053.1-.112.063-.165.128-.05.063-.1.276-.08.362-.168.058-.008.227-.014.35 0 .05-.04.106-.044.16-.01.12.017.267.068.37.097.2.268.414.435.545.19.147.364.57.607.63.177.042.384-.104.543-.143.18-.043.397.01.57-.053.223-.08.13-.337.29-.45.103-.074.286-.01.405-.05.2-.07.34-.264.376-.46.017-.083.01-.146.04-.222.04-.102.11-.16.09-.293-.01-.062-.052-.12-.064-.187-.022-.114.002-.224 0-.337-.003-.2.017-.38-.078-.55-.38-.688-1.236-.93-1.975-.79-.18.035-.287.127-.442.208-.17.088-.138.166-.317.224-.08.026-.216.124-.215.224.002.115.005.05.012.17-.02.01-.02-.006-.03-.026M8.156-25.736c.018.072.007.127-.026.19-.053.1-.112.063-.165.128-.05.063-.1.276-.08.362-.168.058-.008.227-.014.35 0 .05-.04.106-.044.16-.01.12.017.267.068.37.097.2.268.414.435.545.19.147.364.57.607.63.177.042.384-.104.543-.143.18-.043.397.01.57-.053.223-.08.128-.337.29-.45.103-.074.286-.01.405-.05.2-.07.34-.264.376-.46.017-.083.01-.146.04-.222.038-.102.11-.16.09-.293-.01-.062-.052-.12-.064-.187-.022-.114.002-.224 0-.337-.003-.2.017-.38-.078-.55-.38-.688-1.236-.93-1.975-.79-.18.035-.287.127-.442.208-.17.088-.138.166-.317.224-.08.026-.216.124-.215.224 0 .115.005.05.012.17-.02.01-.02-.006-.03-.026M.495-25.736c.018.072.007.127-.026.19-.054.1-.113.063-.166.128-.05.063-.1.276-.08.362-.168.058-.01.227-.014.35-.002.05-.04.106-.045.16-.01.12.017.267.068.37.097.2.268.414.435.545.19.147.365.57.608.63.177.042.384-.104.543-.143.18-.043.396.01.57-.053.222-.08.127-.337.288-.45.104-.074.287-.01.406-.05.2-.07.34-.264.376-.46.016-.083.01-.146.04-.222.038-.102.11-.16.09-.293-.01-.062-.053-.12-.065-.187-.022-.114.002-.224 0-.337-.003-.2.017-.38-.078-.55-.38-.688-1.236-.93-1.975-.79-.18.035-.287.127-.442.208-.17.088-.14.166-.318.224-.08.026-.216.124-.215.224 0 .115.005.05.012.17-.022.01-.022-.006-.03-.026M69.44-18.084c.016.072.006.127-.027.19-.053.1-.112.063-.165.128-.05.063-.1.276-.08.362-.168.058-.01.226-.014.35-.002.05-.04.105-.045.16-.01.12.016.267.067.37.097.2.268.414.435.545.19.15.365.573.608.632.177.042.384-.104.543-.142.18-.043.397.01.57-.053.223-.08.128-.337.29-.45.103-.074.286-.01.405-.05.2-.07.34-.264.376-.46.016-.083.01-.145.04-.222.038-.103.11-.16.09-.293-.01-.062-.053-.12-.065-.187-.023-.114 0-.224 0-.337-.003-.2.017-.38-.078-.55-.38-.688-1.236-.93-1.975-.79-.18.035-.287.127-.442.208-.17.088-.14.166-.318.224-.08.026-.216.124-.215.224 0 .115.005.05.012.17-.02.01-.02-.006-.03-.026M61.778-18.084c.018.072.007.127-.026.19-.053.1-.112.063-.165.128-.05.063-.1.276-.08.362-.168.058-.008.226-.014.35-.002.05-.04.105-.045.16-.01.12.017.267.068.37.097.2.268.414.435.545.19.15.366.573.61.632.176.042.383-.104.542-.142.18-.043.397.01.57-.053.223-.08.128-.337.29-.45.103-.074.286-.01.405-.05.2-.07.34-.264.376-.46.016-.083.01-.145.04-.222.038-.103.11-.16.09-.293-.01-.062-.053-.12-.065-.187-.022-.114.002-.224 0-.337-.003-.2.017-.38-.078-.55-.38-.688-1.236-.93-1.975-.79-.18.035-.287.127-.442.208-.17.088-.14.166-.318.224-.08.026-.216.124-.215.224 0 .115.005.05.012.17-.02.01-.02-.006-.03-.026M54.118-18.084c.018.072.007.127-.026.19-.053.1-.112.063-.165.128-.05.063-.1.276-.08.362-.168.058-.008.226-.014.35-.002.05-.04.105-.045.16-.01.12.017.267.068.37.097.2.268.414.435.545.19.15.366.573.61.632.176.042.383-.104.542-.142.18-.043.397.01.57-.053.223-.08.128-.337.29-.45.103-.074.286-.01.405-.05.2-.07.34-.264.376-.46.016-.083.01-.145.04-.222.037-.103.11-.16.09-.293-.01-.062-.053-.12-.065-.187-.022-.114.002-.224 0-.337-.003-.2.017-.38-.078-.55-.38-.688-1.236-.93-1.975-.79-.18.035-.287.127-.442.208-.17.088-.14.166-.318.224-.08.026-.216.124-.215.224 0 .115.005.05.012.17-.02.01-.02-.006-.03-.026M46.458-18.084c.018.072.007.127-.026.19-.053.1-.112.063-.165.128-.05.063-.1.276-.08.362-.168.058-.008.226-.014.35-.003.05-.04.105-.045.16-.01.12.017.267.068.37.097.2.268.414.435.545.19.15.366.573.61.632.176.042.383-.104.542-.142.18-.043.397.01.57-.053.223-.08.128-.337.29-.45.103-.074.286-.01.405-.05.2-.07.34-.264.376-.46.016-.083.01-.145.04-.222.038-.103.11-.16.09-.293-.01-.062-.053-.12-.065-.187-.022-.114.002-.224 0-.337-.003-.2.017-.38-.078-.55-.38-.688-1.236-.93-1.975-.79-.18.035-.287.127-.442.208-.17.088-.14.166-.318.224-.08.026-.216.124-.215.224 0 .115.005.05.012.17-.02.01-.02-.006-.03-.026M38.797-18.084c.017.072.007.127-.026.19-.052.1-.11.063-.164.128-.05.063-.1.276-.08.362-.168.058-.008.226-.014.35-.002.05-.04.105-.045.16-.01.12.017.267.068.37.097.2.268.414.435.545.19.15.365.573.608.632.177.042.384-.104.543-.142.18-.043.398.01.572-.053.222-.08.127-.337.288-.45.104-.074.287-.01.406-.05.2-.07.34-.264.376-.46.016-.083.01-.145.04-.222.038-.103.11-.16.09-.293-.01-.062-.053-.12-.066-.187-.022-.114.002-.224 0-.337-.003-.2.017-.38-.078-.55-.38-.688-1.236-.93-1.975-.79-.18.035-.287.127-.442.208-.17.088-.138.166-.317.224-.08.026-.216.124-.215.224 0 .115.005.05.012.17-.02.01-.02-.006-.03-.026M31.137-18.084c.018.072.007.127-.026.19-.052.1-.11.063-.164.128-.05.063-.1.276-.08.362-.168.058-.008.226-.014.35-.003.05-.04.105-.045.16-.01.12.017.267.068.37.097.2.268.414.435.545.19.15.365.573.608.632.177.042.384-.104.543-.142.18-.043.398.01.572-.053.222-.08.127-.337.288-.45.104-.074.287-.01.406-.05.2-.07.34-.264.376-.46.016-.083.01-.145.04-.222.038-.103.11-.16.09-.293-.01-.062-.053-.12-.065-.187-.022-.114.002-.224 0-.337-.003-.2.017-.38-.078-.55-.38-.688-1.237-.93-1.976-.79-.18.035-.287.127-.442.208-.17.088-.14.166-.318.224-.08.026-.216.124-.215.224 0 .115.004.05.01.17-.02.01-.02-.006-.03-.026M23.477-18.084c.017.072.007.127-.026.19-.052.1-.11.063-.164.128-.05.063-.1.276-.08.362-.168.058-.008.226-.014.35-.002.05-.04.105-.045.16-.01.12.017.267.068.37.097.2.268.414.435.545.19.15.365.573.608.632.177.042.384-.104.543-.142.18-.043.398.01.572-.053.222-.08.127-.337.288-.45.104-.074.287-.01.406-.05.2-.07.34-.264.376-.46.016-.083.01-.145.04-.222.037-.103.11-.16.09-.293-.01-.062-.053-.12-.066-.187-.022-.114.002-.224 0-.337-.003-.2.017-.38-.078-.55-.38-.688-1.236-.93-1.975-.79-.18.035-.287.127-.442.208-.17.088-.138.166-.317.224-.08.026-.216.124-.215.224.002.115.005.05.012.17-.02.01-.02-.006-.03-.026M15.816-18.084c.018.072.007.127-.026.19-.053.1-.112.063-.165.128-.05.063-.1.276-.08.362-.168.058-.008.226-.014.35 0 .05-.04.105-.044.16-.01.12.017.267.068.37.097.2.268.414.435.545.19.15.364.573.607.632.177.042.384-.104.543-.142.18-.043.397.01.57-.053.223-.08.13-.337.29-.45.103-.074.286-.01.405-.05.2-.07.34-.264.376-.46.017-.083.01-.145.04-.222.04-.103.11-.16.09-.293-.01-.062-.052-.12-.064-.187-.022-.114.002-.224 0-.337-.003-.2.017-.38-.078-.55-.38-.688-1.236-.93-1.975-.79-.18.035-.287.127-.442.208-.17.088-.138.166-.317.224-.08.026-.216.124-.215.224.002.115.005.05.012.17-.02.01-.02-.006-.03-.026M8.156-18.084c.018.072.007.127-.026.19-.053.1-.112.063-.165.128-.05.063-.1.276-.08.362-.168.058-.008.226-.014.35 0 .05-.04.105-.044.16-.01.12.017.267.068.37.097.2.268.414.435.545.19.15.364.573.607.632.177.042.384-.104.543-.142.18-.043.397.01.57-.053.223-.08.128-.337.29-.45.103-.074.286-.01.405-.05.2-.07.34-.264.376-.46.017-.083.01-.145.04-.222.038-.103.11-.16.09-.293-.01-.062-.052-.12-.064-.187-.022-.114.002-.224 0-.337-.003-.2.017-.38-.078-.55-.38-.688-1.236-.93-1.975-.79-.18.035-.287.127-.442.208-.17.088-.138.166-.317.224-.08.026-.216.124-.215.224 0 .115.005.05.012.17-.02.01-.02-.006-.03-.026M.495-18.084c.018.072.007.127-.026.19-.054.1-.113.063-.166.128-.05.063-.1.276-.08.362-.168.058-.01.226-.014.35-.002.05-.04.105-.045.16-.01.12.017.267.068.37.097.2.268.414.435.545.19.15.365.573.608.632.177.042.384-.104.543-.142.18-.043.396.01.57-.053.222-.08.127-.337.288-.45.104-.074.287-.01.406-.05.2-.07.34-.264.376-.46.016-.083.01-.145.04-.222.038-.103.11-.16.09-.293-.01-.062-.053-.12-.065-.187-.022-.114.002-.224 0-.337-.003-.2.017-.38-.078-.55-.38-.688-1.236-.93-1.975-.79-.18.035-.287.127-.442.208-.17.088-.14.166-.318.224-.08.026-.216.124-.215.224.003.116.006.05.013.17-.02.01-.02-.006-.03-.026M69.44-10.43c.016.07.006.126-.027.19-.053.1-.112.063-.165.128-.05.063-.1.276-.08.362-.168.058-.01.227-.014.35-.002.05-.04.105-.045.16-.01.12.016.267.067.37.097.2.268.414.435.545.19.148.365.572.608.63.177.043.384-.103.543-.142.18-.043.397.01.57-.053.223-.08.128-.337.29-.45.103-.074.286-.01.405-.05.2-.07.34-.264.376-.46.016-.083.01-.146.04-.222.038-.103.11-.16.09-.293-.01-.062-.053-.12-.065-.187-.023-.114 0-.224 0-.337-.003-.2.017-.378-.078-.55-.38-.687-1.236-.928-1.975-.788-.18.034-.287.126-.442.207-.17.087-.14.165-.318.223-.08.026-.216.124-.215.224 0 .115.005.05.012.17-.02.01-.02-.006-.03-.026M61.778-10.43c.018.07.007.126-.026.19-.053.1-.112.063-.165.128-.05.063-.1.276-.08.362-.168.058-.008.227-.014.35-.002.05-.04.105-.045.16-.01.12.017.267.068.37.097.2.268.414.435.545.19.148.366.572.61.63.176.043.383-.103.542-.142.18-.043.397.01.57-.053.223-.08.128-.337.29-.45.103-.074.286-.01.405-.05.2-.07.34-.264.376-.46.016-.083.01-.146.04-.222.038-.103.11-.16.09-.293-.01-.062-.053-.12-.065-.187-.022-.114.002-.224 0-.337-.003-.2.017-.378-.078-.55-.38-.687-1.236-.928-1.975-.788-.18.034-.287.126-.442.207-.17.087-.14.165-.318.223-.08.026-.216.124-.215.224 0 .115.005.05.012.17-.02.01-.02-.006-.03-.026M54.118-10.43c.018.07.007.126-.026.19-.053.1-.112.063-.165.128-.05.063-.1.276-.08.362-.168.058-.008.227-.014.35-.002.05-.04.105-.045.16-.01.12.017.267.068.37.097.2.268.414.435.545.19.148.366.572.61.63.176.043.383-.103.542-.142.18-.043.397.01.57-.053.223-.08.128-.337.29-.45.103-.074.286-.01.405-.05.2-.07.34-.264.376-.46.016-.083.01-.146.04-.222.037-.103.11-.16.09-.293-.01-.062-.053-.12-.065-.187-.022-.114.002-.224 0-.337-.003-.2.017-.378-.078-.55-.38-.687-1.236-.928-1.975-.788-.18.034-.287.126-.442.207-.17.087-.14.165-.318.223-.08.026-.216.124-.215.224 0 .115.005.05.012.17-.02.01-.02-.006-.03-.026M46.458-10.43c.018.07.007.126-.026.19-.053.1-.112.063-.165.128-.05.063-.1.276-.08.362-.168.058-.008.227-.014.35-.003.05-.04.105-.045.16-.01.12.017.267.068.37.097.2.268.414.435.545.19.148.366.572.61.63.176.043.383-.103.542-.142.18-.043.397.01.57-.053.223-.08.128-.337.29-.45.103-.074.286-.01.405-.05.2-.07.34-.264.376-.46.016-.083.01-.146.04-.222.038-.103.11-.16.09-.293-.01-.062-.053-.12-.065-.187-.022-.114.002-.224 0-.337-.003-.2.017-.378-.078-.55-.38-.687-1.236-.928-1.975-.788-.18.034-.287.126-.442.207-.17.087-.14.165-.318.223-.08.026-.216.124-.215.224 0 .115.005.05.012.17-.02.01-.02-.006-.03-.026M38.797-10.43c.017.07.007.126-.026.19-.052.1-.11.063-.164.128-.05.063-.1.276-.08.362-.168.058-.008.227-.014.35-.002.05-.04.105-.045.16-.01.12.017.267.068.37.097.2.268.414.435.545.19.148.365.572.608.63.177.043.384-.103.543-.142.18-.043.398.01.572-.053.222-.08.127-.337.288-.45.104-.074.287-.01.406-.05.2-.07.34-.264.376-.46.016-.083.01-.146.04-.222.038-.103.11-.16.09-.293-.01-.062-.053-.12-.066-.187-.022-.114.002-.224 0-.337-.003-.2.017-.378-.078-.55-.38-.687-1.236-.928-1.975-.788-.18.034-.287.126-.442.207-.17.087-.138.165-.317.223-.08.026-.216.124-.215.224 0 .115.005.05.012.17-.02.01-.02-.006-.03-.026M31.137-10.43c.018.07.007.126-.026.19-.052.1-.11.063-.164.128-.05.063-.1.276-.08.362-.168.058-.008.227-.014.35-.003.05-.04.105-.045.16-.01.12.017.267.068.37.097.2.268.414.435.545.19.148.365.572.608.63.177.043.384-.103.543-.142.18-.043.398.01.572-.053.222-.08.127-.337.288-.45.104-.074.287-.01.406-.05.2-.07.34-.264.376-.46.016-.083.01-.146.04-.222.038-.103.11-.16.09-.293-.01-.062-.053-.12-.065-.187-.022-.114.002-.224 0-.337-.003-.2.017-.378-.078-.55-.38-.687-1.237-.928-1.976-.788-.18.034-.287.126-.442.207-.17.087-.14.165-.318.223-.08.026-.216.124-.215.224 0 .115.004.05.01.17-.02.01-.02-.006-.03-.026M23.477-10.43c.017.07.007.126-.026.19-.052.1-.11.063-.164.128-.05.063-.1.276-.08.362-.168.058-.008.227-.014.35-.002.05-.04.105-.045.16-.01.12.017.267.068.37.097.2.268.414.435.545.19.148.365.572.608.63.177.043.384-.103.543-.142.18-.043.398.01.572-.053.222-.08.127-.337.288-.45.104-.074.287-.01.406-.05.2-.07.34-.264.376-.46.016-.083.01-.146.04-.222.037-.103.11-.16.09-.293-.01-.062-.053-.12-.066-.187-.022-.114.002-.224 0-.337-.003-.2.017-.378-.078-.55-.38-.687-1.236-.928-1.975-.788-.18.034-.287.126-.442.207-.17.087-.138.165-.317.223-.08.026-.216.124-.215.224.002.115.005.05.012.17-.02.01-.02-.006-.03-.026M15.816-10.43c.018.07.007.126-.026.19-.053.1-.112.063-.165.128-.05.063-.1.276-.08.362-.168.058-.008.227-.014.35 0 .05-.04.105-.044.16-.01.12.017.267.068.37.097.2.268.414.435.545.19.148.364.572.607.63.177.043.384-.103.543-.142.18-.043.397.01.57-.053.223-.08.13-.337.29-.45.104-.074.287-.01.406-.05.2-.07.34-.264.376-.46.016-.083.01-.146.04-.222.038-.103.11-.16.09-.293-.01-.062-.053-.12-.065-.187-.022-.114.002-.224 0-.337-.003-.2.017-.378-.078-.55-.38-.687-1.237-.928-1.976-.788-.18.034-.287.126-.442.207-.17.087-.14.165-.318.223-.08.026-.216.124-.215.224 0 .115.004.05.01.17-.02.01-.02-.006-.03-.026M8.156-10.43c.018.07.007.126-.026.19-.053.1-.112.063-.165.128-.05.062-.1.276-.08.362-.168.058-.01.227-.014.35-.002.05-.04.105-.044.16-.01.12.017.267.068.37.097.2.268.414.435.545.19.148.364.572.607.63.177.043.384-.104.543-.142.18-.043.397.01.57-.053.223-.08.128-.337.29-.45.103-.074.286-.01.405-.05.2-.07.34-.264.376-.46.017-.083.01-.146.04-.222.038-.103.11-.16.09-.293-.01-.062-.052-.12-.064-.187-.022-.114.002-.224 0-.337-.003-.2.017-.378-.078-.55-.38-.687-1.236-.928-1.975-.788-.18.034-.287.126-.442.207-.17.087-.138.165-.317.223-.08.026-.216.124-.215.224 0 .115.005.05.012.17-.02.01-.02-.006-.03-.026M.495-10.43c.018.07.007.126-.026.19-.054.1-.113.063-.166.128-.05.062-.1.276-.08.362-.168.058-.01.227-.014.35-.002.05-.04.105-.045.16-.01.12.017.267.068.37.097.2.268.414.435.545.19.148.365.572.608.63.178.043.384-.104.543-.142.18-.043.397.01.57-.053.223-.08.128-.337.29-.45.103-.074.286-.01.405-.05.2-.07.34-.264.376-.46.017-.083.01-.145.04-.22.04-.104.11-.16.09-.294-.01-.062-.052-.12-.064-.187-.022-.115.002-.225 0-.338-.003-.2.017-.38-.078-.55-.38-.688-1.236-.93-1.975-.79-.18.035-.287.127-.442.208-.17.088-.138.166-.317.224-.08.026-.216.124-.215.224 0 .115.005.05.012.17-.02.01-.02-.006-.03-.026"/></g><g fill="#fff"><path d="M69.44-2.778c.016.072.007.127-.027.19-.052.1-.113.063-.165.128-.05.063-.1.276-.08.362-.168.058-.01.227-.014.35-.002.05-.04.105-.045.16-.01.12.016.267.067.37.097.2.268.414.435.545.19.148.365.572.608.63.177.043.384-.103.543-.142.18-.043.397.01.57-.053.223-.08.128-.337.29-.45.103-.074.286-.01.405-.05.2-.07.34-.264.376-.46.016-.083.01-.146.04-.222.037-.103.11-.16.09-.293-.01-.062-.052-.12-.065-.187-.022-.114 0-.224 0-.337-.003-.2.017-.38-.078-.55-.38-.688-1.236-.93-1.975-.79-.18.035-.287.127-.442.208-.17.09-.14.167-.318.225-.08.026-.215.124-.215.224.002.114.005.05.012.168-.02.01-.02-.005-.03-.025M61.778-2.778c.018.072.007.127-.026.19-.052.1-.112.063-.165.128-.05.063-.1.276-.08.362-.168.058-.01.227-.014.35-.002.05-.04.105-.045.16-.01.12.017.267.068.37.097.2.268.414.435.545.19.148.366.572.61.63.177.043.383-.103.543-.142.18-.043.397.01.57-.053.223-.08.128-.337.29-.45.103-.074.286-.01.405-.05.2-.07.34-.264.376-.46.016-.083.01-.146.04-.222.038-.103.11-.16.09-.293-.01-.062-.053-.12-.065-.187-.023-.114 0-.224 0-.337-.004-.2.016-.38-.08-.55-.38-.688-1.235-.93-1.974-.79-.18.035-.287.127-.442.208-.17.09-.14.167-.318.225-.08.028-.216.125-.215.225.002.115.006.05.013.17-.02.01-.02-.006-.03-.026M54.118-2.778c.018.072.007.127-.026.19-.052.1-.112.063-.165.128-.05.063-.1.276-.08.362-.168.058-.01.227-.014.35-.002.05-.04.105-.045.16-.01.12.017.267.068.37.097.2.268.414.435.545.19.148.366.572.61.63.177.043.383-.103.542-.142.18-.043.397.01.57-.053.223-.08.128-.337.29-.45.103-.074.286-.01.405-.05.2-.07.34-.264.376-.46.016-.083.01-.146.04-.222.037-.103.11-.16.09-.293-.01-.062-.053-.12-.065-.187-.022-.114.002-.224 0-.337-.003-.2.017-.38-.078-.55-.38-.688-1.236-.93-1.975-.79-.18.035-.287.127-.442.208-.17.09-.14.167-.318.225-.08.028-.215.125-.214.225.002.115.006.05.013.17-.02.01-.02-.006-.03-.026M46.458-2.778c.018.072.007.127-.026.19-.053.1-.112.063-.165.128-.05.063-.1.276-.08.362-.168.058-.01.227-.014.35-.003.05-.04.105-.045.16-.01.12.017.267.068.37.097.2.268.414.435.545.19.148.366.572.61.63.176.043.383-.103.542-.142.18-.043.397.01.57-.053.223-.08.128-.337.29-.45.103-.074.286-.01.405-.05.2-.07.34-.264.376-.46.016-.083.01-.146.04-.222.038-.103.11-.16.09-.293-.01-.062-.053-.12-.065-.187-.022-.114.002-.224 0-.337-.003-.2.017-.38-.078-.55-.38-.688-1.236-.93-1.975-.79-.18.035-.287.127-.442.208-.17.09-.14.167-.318.225-.08.028-.216.125-.215.225 0 .115.005.05.012.17-.02.01-.02-.006-.03-.026M38.797-2.778c.017.072.007.127-.026.19-.052.1-.11.063-.164.128-.05.063-.1.276-.08.362-.168.058-.01.227-.014.35-.002.05-.04.105-.045.16-.01.12.017.267.068.37.097.2.268.414.435.545.19.148.365.572.608.63.178.043.384-.103.544-.142.18-.043.397.01.57-.053.223-.08.128-.337.29-.45.103-.074.286-.01.405-.05.2-.07.34-.264.376-.46.016-.083.01-.146.04-.222.038-.103.11-.16.09-.293-.01-.062-.053-.12-.066-.187-.022-.114.002-.224 0-.337-.003-.2.017-.38-.078-.55-.38-.688-1.237-.93-1.976-.79-.18.035-.287.127-.442.208-.17.09-.14.167-.318.225-.08.028-.215.125-.214.225 0 .115.005.05.012.17-.02.01-.02-.006-.03-.026M31.137-2.778c.018.072.007.127-.026.19-.052.1-.11.063-.164.128-.05.063-.1.276-.08.362-.168.058-.01.227-.014.35-.003.05-.04.105-.045.16-.01.12.017.267.068.37.097.2.268.414.435.545.19.148.365.572.608.63.177.043.384-.103.543-.142.18-.043.398.01.572-.053.222-.08.127-.337.288-.45.104-.074.287-.01.406-.05.2-.07.34-.264.376-.46.016-.083.01-.146.04-.222.038-.103.11-.16.09-.293-.01-.062-.053-.12-.065-.187-.022-.114.002-.224 0-.337-.003-.2.017-.38-.078-.55-.38-.688-1.237-.93-1.976-.79-.18.035-.287.127-.442.208-.17.09-.14.167-.318.225-.08.028-.215.125-.214.225 0 .115.005.05.012.17-.02.01-.02-.006-.03-.026M23.477-2.778c.017.072.007.127-.026.19-.052.1-.11.063-.164.128-.05.063-.1.276-.08.362-.168.058-.01.227-.014.35-.002.05-.04.105-.045.16-.01.12.017.267.068.37.097.2.268.414.435.545.19.148.365.572.608.63.177.043.384-.103.543-.142.18-.043.398.01.572-.053.222-.08.127-.337.288-.45.104-.074.287-.01.406-.05.2-.07.34-.264.376-.46.016-.083.01-.146.04-.222.037-.103.11-.16.09-.293-.01-.062-.053-.12-.066-.187-.022-.114.002-.224 0-.337-.003-.2.017-.38-.078-.55-.38-.688-1.236-.93-1.975-.79-.18.035-.287.127-.442.208-.17.09-.138.167-.317.225-.08.026-.216.124-.215.224.002.114.005.05.012.168-.02.01-.02-.005-.03-.025M15.816-2.778c.018.072.007.127-.026.19-.053.1-.112.063-.165.128-.05.063-.1.276-.08.362-.168.058-.01.227-.014.35 0 .05-.04.105-.044.16-.01.12.017.267.068.37.097.2.268.414.435.545.19.148.364.572.607.63.177.043.384-.103.543-.142.18-.043.397.01.57-.053.223-.08.13-.337.29-.45.103-.074.286-.01.405-.05.2-.07.34-.264.376-.46.017-.083.01-.146.04-.222.04-.103.11-.16.09-.293-.01-.062-.052-.12-.064-.187-.022-.114.002-.224 0-.337-.003-.2.017-.38-.078-.55-.38-.688-1.236-.93-1.975-.79-.18.035-.287.127-.442.208-.17.09-.138.167-.317.225-.08.026-.216.124-.215.224.002.114.005.05.012.168-.02.012-.02-.004-.03-.024M8.156-2.778c.018.072.007.127-.026.19-.053.1-.112.063-.165.128-.05.063-.1.276-.08.362-.168.058-.01.227-.014.35-.002.05-.04.105-.044.16-.01.12.017.267.068.37.097.2.268.414.435.545.19.148.364.572.607.63.177.043.384-.103.543-.142.18-.043.397.01.57-.053.223-.08.128-.337.29-.45.103-.074.286-.01.405-.05.2-.07.34-.264.376-.46.017-.083.01-.146.04-.222.038-.103.11-.16.09-.293-.01-.062-.052-.12-.064-.187-.022-.114.002-.224 0-.337-.003-.2.017-.38-.078-.55-.38-.688-1.236-.93-1.975-.79-.18.037-.286.13-.44.21-.17.088-.14.166-.32.224-.08.026-.215.123-.214.223 0 .115.004.05.01.17-.02.01-.02-.006-.03-.026M.495-2.778c.018.072.008.127-.026.19-.053.1-.114.063-.166.128-.05.063-.1.276-.08.362-.168.058-.01.227-.014.35-.002.05-.04.105-.045.16-.01.12.017.267.068.37.097.2.268.414.435.545.19.148.365.572.608.63.178.043.384-.103.543-.142.18-.043.397.01.57-.052.223-.08.128-.337.29-.45.103-.074.286-.01.405-.05.2-.07.34-.264.376-.46.017-.083.01-.146.04-.222.038-.102.11-.16.09-.292-.01-.062-.05-.12-.064-.187-.02-.113.002-.223 0-.336-.003-.2.017-.38-.078-.55-.38-.688-1.236-.93-1.975-.79-.18.036-.286.128-.442.21-.17.087-.138.165-.317.223-.08.026-.215.123-.215.223.002.115.005.05.012.17-.02.01-.022-.006-.03-.026"/></g></pattern><path fill-rule="evenodd" clip-rule="evenodd" fill="#5B91CC" d="M99.846 81.16c-1.415 0-2.73.43-3.83 1.16L86.49 76.82c.004-.092.014-.183.014-.275 0-3.664-2.988-6.652-6.648-6.652-3.664 0-6.648 2.99-6.648 6.653 0 .09.01.18.014.27l-9.806 5.664c-.154-.098-.312-.192-.474-.278V70.884c2.116-1.114 3.566-3.332 3.566-5.885 0-.092-.01-.183-.014-.274l9.804-5.662c1.03.656 2.247 1.04 3.553 1.04 1.307 0 2.525-.385 3.556-1.04l9.8 5.656c-.003.094-.013.185-.013.28 0 3.663 2.988 6.647 6.652 6.647 3.66 0 6.645-2.984 6.645-6.648 0-3.665-2.984-6.65-6.645-6.65-1.31 0-2.527.387-3.558 1.043l-9.804-5.66c.004-.092.014-.183.014-.276 0-.093-.01-.183-.014-.275l9.806-5.662c1.03.656 2.247 1.042 3.555 1.042 3.66 0 6.648-2.988 6.648-6.648 0-3.66-2.988-6.648-6.648-6.648-1.31 0-2.527.387-3.558 1.043l-9.8-5.658c.004-.093.014-.184.014-.277 0-3.664-2.987-6.648-6.647-6.648s-6.648 2.984-6.648 6.648c0 3.66 2.988 6.648 6.648 6.648 1.308 0 2.525-.387 3.556-1.043l9.8 5.658c-.003.092-.013.183-.013.276 0 .093.01.184.014.276l-9.804 5.662c-1.03-.657-2.248-1.043-3.557-1.043-1.308 0-2.526.386-3.557 1.042l-9.802-5.66c.005-.09.015-.182.015-.274 0-2.554-1.452-4.776-3.57-5.89l.003-11.003c2.275-1.138 3.85-3.486 3.85-6.193 0-3.813-3.114-6.926-6.927-6.926s-6.925 3.113-6.925 6.926c0 2.707 1.573 5.054 3.847 6.192L56.78 36.03c-2.117 1.114-3.567 3.335-3.567 5.888 0 3.66 2.984 6.648 6.648 6.648 1.307 0 2.524-.386 3.553-1.042l9.802 5.657c-.004.093-.014.184-.014.276 0 .094.01.185.015.278l-9.8 5.658c-1.03-.656-2.247-1.042-3.554-1.042s-2.525.386-3.555 1.042l-9.802-5.66c.004-.092.014-.183.014-.277 0-2.55-1.453-4.77-3.57-5.885V36.26c2.118-1.115 3.57-3.335 3.57-5.885 0-3.664-2.988-6.648-6.65-6.648-3.66 0-6.647 2.984-6.647 6.648 0 2.55 1.453 4.77 3.57 5.885v11.312c-.164.086-.322.18-.478.28l-9.802-5.66c.004-.092.014-.184.014-.278 0-3.66-2.988-6.648-6.648-6.648-3.66 0-6.648 2.988-6.648 6.648 0 2.55 1.453 4.77 3.57 5.885v11.315C14.683 60.23 13.232 62.45 13.232 65c0 3.664 2.984 6.648 6.644 6.648s6.648-2.984 6.648-6.648c0-2.55-1.453-4.77-3.57-5.885V47.8c.163-.087.32-.18.476-.28l9.804 5.66c-.004.092-.014.183-.014.276 0 2.553 1.453 4.772 3.57 5.886v11.316c-2.117 1.115-3.566 3.334-3.566 5.884 0 .093.01.183.014.274l-9.803 5.662c-1.03-.658-2.25-1.045-3.558-1.045-3.66 0-6.648 2.988-6.648 6.648 0 3.665 2.987 6.653 6.647 6.653s6.648-2.988 6.648-6.652c0-.092-.01-.18-.014-.272l9.806-5.66c1.03.657 2.248 1.043 3.557 1.043 3.66 0 6.645-2.987 6.645-6.647 0-2.55-1.452-4.773-3.57-5.887V59.343c.164-.086.322-.18.477-.28l9.803 5.66c-.004.093-.014.184-.014.277 0 2.553 1.453 4.772 3.57 5.886v11.312c-2.118 1.116-3.57 3.338-3.57 5.888 0 .092.01.182.014.273l-9.802 5.66c-1.03-.657-2.25-1.043-3.556-1.043-3.66 0-6.648 2.984-6.648 6.648 0 3.664 2.988 6.648 6.648 6.648 3.66 0 6.65-2.984 6.65-6.648 0-.093-.01-.183-.015-.274l9.802-5.658c.155.1.314.193.477.28v11.003c-2.274 1.138-3.848 3.483-3.848 6.193 0 3.813 3.113 6.926 6.926 6.926s6.926-3.113 6.926-6.926c0-.146-.013-.288-.022-.432l9.533-5.505c1.03.657 2.248 1.043 3.555 1.043 3.66 0 6.648-2.984 6.648-6.648 0-3.66-2.988-6.648-6.648-6.648-3.66 0-6.648 2.988-6.648 6.648 0 .094.01.185.014.277l-9.53 5.5c-.238-.158-.49-.3-.75-.428V93.97c2.117-1.113 3.567-3.334 3.567-5.884 0-.093-.01-.184-.014-.275l9.806-5.66c1.03.655 2.247 1.042 3.555 1.042 1.306 0 2.523-.386 3.552-1.042l9.536 5.503c-.01.145-.022.287-.022.433 0 3.813 3.11 6.922 6.927 6.922 3.813 0 6.926-3.11 6.926-6.922-.002-3.816-3.115-6.926-6.927-6.926z"/></svg>